<svg height="2500" viewBox="-5.264 -1.773 268.698 261.444" width="2500" xmlns="http://www.w3.org/2000/svg"><g fill="none" fill-rule="evenodd"><path d="m162.923 16.407c-63.887-18.18-130.811 17.463-149.503 79.624-18.684 62.156 17.953 127.28 81.841 145.46 63.873 18.18 130.812-17.461 149.489-79.617 18.684-62.17-17.954-127.287-81.827-145.467z" fill="#eff4f8"/><path d="m162.154 18.965c-62.436-17.765-127.839 17.065-146.104 77.815-18.26 60.742 17.545 124.387 79.98 142.153 62.422 17.767 127.84-17.064 146.092-77.807 18.26-60.757-17.546-124.394-79.967-142.16z" fill="#fff"/><path d="m164.69 33.527c-14.96-5.311-30.287-6.744-45.159-5.398-17.244 1.324-25.662 6.52-25.164 5.579-28.198 9.796-52.038 30.865-63.08 60.414-19.662 52.623 8.186 110.817 62.188 129.976 54.023 19.159 113.743-7.974 133.405-60.596 19.668-52.623-8.18-110.809-62.19-129.975zm-67.66 181.056c-5.756-2.047-11.133-4.652-16.197-7.626 25.164 1.881 58.002-3.762 80.147-23.927 0 0 42.215-32.82 11.675-86.679 0 0 4.923 21.706-1.353 39.563 0 0-5.986 24.281-32.593 31.336-39.189 10.39-83.843-16.301-102.509-29.23-1.405-13.292-.156-27.025 4.849-40.425 7.421-19.853 21.371-35.344 38.416-45.748-4.26 29.006-.892 55.711 3.949 66.897 6.499 15 17.794 32.494 39.828 34.737 22.033 2.25 34.184-17.813 34.184-17.813 11.303-16.714 13.073-40.713 12.902-41.292-.172-.586-3.012-2.17-3.012-2.17-7.607 29.953-20.152 39.96-20.152 39.96-19.78 18.58-33.79 5.694-33.79 5.694-15.058-15.737-4.514-41.314-4.514-41.314 5.897-17.422 23.082-42.92 42.557-55.885 3.243.781 6.507 1.266 9.712 2.402 11.786 4.182 22.108 10.484 30.838 18.226-14.24 5.057-37.233 15.75-37.233 15.75-36.445 14.935-38.906 37.523-38.906 37.523-3.77 23.284 15.214 13.429 15.214 13.429 19.543-9.261 29.143-38.123 29.143-38.123-6.098-1.129-10.902.673-10.902.673-7.8 18.732-23.714 26.438-23.714 26.438-6.261 3.227-7.718-2.475-7.718-2.475-1.056-4.268 4.528-5 4.528-5 8.67-3.277 14.218-12.14 15.475-15.765 1.25-3.632 3.577-3.914 3.577-3.914 11.883-3.69 22.717-4.515 22.717-4.515 14.753-1.766 37.337 5.08 37.337 5.08 5.064 1.982 9.92 3.465 14.233 4.651 8.276 20.122 9.585 43.036 1.383 65.002-17.683 47.356-71.447 71.782-120.072 54.54z" fill="#00b7ff" opacity=".8"/></g></svg>