<svg width="31" height="32" fill="none" xmlns="http://www.w3.org/2000/svg"><path fill-rule="evenodd" clip-rule="evenodd" d="M29.06 18.938c.599 1.054 1.15 2.133 1.577 3.269.2.532.158 1.048-.218 1.495-.368.439-.845.364-1.327.237a90.272 90.272 0 0 0-.888-.228 54.323 54.323 0 0 1-1.492-.392c-.276-.078-.369-.026-.431.257-.32 1.46-.909 2.813-1.827 3.994-2.336 3.007-5.343 4.459-8.936 4.43-3.594.029-6.6-1.423-8.937-4.43-.919-1.181-1.506-2.533-1.827-3.994-.062-.283-.155-.335-.43-.257-.495.14-.994.266-1.493.392-.296.075-.592.15-.888.228-.482.127-.958.202-1.327-.237-.376-.446-.42-.963-.218-1.495.428-1.136.978-2.214 1.576-3.269a32.87 32.87 0 0 1 5.42-7.118c.165-.164.276-.354.367-.566.496-1.165.72-2.397.946-3.63.036-.193.07-.387.107-.58.201-1.067.423-2.129.88-3.122C10.878 1.34 12.93.088 15.119.002h.135c.088-.002.176-.003.264 0 .087-.003.175-.002.263 0h.135c2.189.087 4.24 1.338 5.426 3.92.455.994.677 2.056.879 3.123l.11.591c.224 1.229.45 2.458.944 3.619.09.21.201.401.367.565a32.906 32.906 0 0 1 5.419 7.118zM15.519 28.52c1.654-.004 3.2-.469 4.576-1.474 2.327-1.7 3.318-4.055 3.087-6.882-.237-2.89-1.456-5.348-3.611-7.315a6.995 6.995 0 0 0-2.352-1.414s-.084-.032-.228-.077c.131-.078.265-.153.4-.224l.687-.445c.457-.297.914-.593 1.373-.887.265-.169.435-.392.411-.713-.023-.318-.213-.526-.503-.651-2.532-1.093-5.07-1.195-7.619-.058-.306.136-.544.32-.569.684-.025.362.187.575.47.755.482.305.96.616 1.438.927l.592.384c.135.07.267.144.397.222-.157.048-.25.083-.25.083a6.995 6.995 0 0 0-2.352 1.414c-2.155 1.967-3.374 4.424-3.61 7.315-.232 2.826.76 5.182 3.086 6.882 1.376 1.005 2.922 1.469 4.577 1.474z" fill="#041027"/></svg>