<svg xmlns="http://www.w3.org/2000/svg" xmlns:xlink="http://www.w3.org/1999/xlink" t="1745914066595" class="icon" viewBox="0 0 1024 1024" version="1.1" p-id="3365" width="200" height="200"><path d="M660.48 212.352c5.952-3.392 12.352-6.912 19.2-10.88l2.368 12.032c1.28 6.272 2.368 11.456 2.88 16.512 4.032 44.288 26.304 76.928 57.856 84.224 46.144 10.752 89.664-7.04 113.088-46.08 28.16-46.848 16-104.32-32-138.88C690.56 33.216 544.128 6.72 386.304 53.056 46.144 153.344-70.272 571.264 171.2 827.52c103.296 109.632 234.432 156.928 383.36 153.344 190.72-4.48 328-99.52 415.744-264.256 62.08-116.864-5.44-244.608-134.848-271.168a837.376 837.376 0 0 0-224.768-14.4c-24.96 2.432-49.28 9.792-71.424 21.76-24.768 12.8-31.872 39.488-29.12 65.92 2.56 24.064 21.056 38.528 43.008 42.176 44.288 6.912 89.088 10.88 133.76 14.592 12.928 1.088 25.984 1.28 39.04 1.344 18.752 0.192 37.376 0.384 55.68 3.392 52.032 8.576 69.888 50.816 43.136 96-6.592 10.88-14.208 21.056-22.848 30.336a259.392 259.392 0 0 1-131.392 77.76c-92.416 22.592-184.896 23.872-276.8-5.12-104.704-33.088-167.168-109.952-169.344-213.504-0.832-63.872 15.36-126.72 46.976-182.272 14.272-25.856 22.08-52.48 19.84-81.856-0.896-12.48-1.408-24.96-1.92-38.4l-1.024-22.4c10.624 2.176 21.12 4.992 31.36 8.32 40.064 16.128 79.488 23.488 122.88 11.648A222.08 222.08 0 0 1 517.76 256a188.608 188.608 0 0 0 115.648-28.288c8.64-5.056 17.344-9.92 26.944-15.36z" fill="currentColor" p-id="3366"/></svg>