<svg version="1.0" xmlns="http://www.w3.org/2000/svg" width="722.000000pt" height="157.000000pt"
    viewBox="0 0 722.000000 157.000000" preserveAspectRatio="xMidYMid meet">
    <g transform="translate(0.000000,157.000000) scale(0.100000,-0.100000)" fill="currentColor"
        stroke="none">
        <path
            d="M97 1453 c-4 -3 -7 -307 -7 -674 0 -542 2 -668 13 -672 7 -3 198 21
423 54 225 32 410 59 412 59 1 0 2 28 2 61 0 59 5 72 131 320 113 223 134 257
144 242 13 -20 175 -333 175 -339 0 -2 -40 -4 -89 -4 -49 0 -97 -3 -106 -6
-16 -6 -109 -184 -101 -192 4 -4 578 -3 582 1 5 5 -466 1032 -473 1032 -4 0
-63 -121 -132 -270 l-126 -270 -5 270 -5 270 -25 7 c-14 4 -187 30 -385 58
-198 28 -374 52 -391 55 -17 3 -33 2 -37 -2z m673 -335 c0 -6 -46 -110 -101
-232 -112 -242 -179 -394 -179 -401 0 -3 49 -5 108 -5 l109 0 31 -84 c18 -45
32 -86 32 -90 0 -3 -129 -6 -286 -6 -225 0 -285 3 -281 13 3 6 103 226 222
487 120 261 224 490 232 509 l15 34 49 -107 c27 -59 49 -112 49 -118z m124
-251 l46 -89 -2 -209 -3 -209 -25 47 c-14 26 -58 108 -97 183 -40 74 -73 143
-73 152 0 26 92 230 100 221 4 -4 28 -48 54 -96z" />
        <path
            d="M2585 1022 c-3 -3 -5 -29 -5 -58 l0 -52 43 3 c23 2 48 4 55 4 9 1 12
16 10 54 l-3 52 -47 1 c-27 0 -50 -1 -53 -4z" />
        <path
            d="M5062 1022 c-21 -3 -23 -8 -20 -55 l3 -51 49 -3 c32 -2 53 1 58 9 10
16 10 79 0 93 -7 11 -47 14 -90 7z" />
        <path
            d="M2070 686 c0 -298 0 -305 20 -311 34 -11 380 -2 389 10 5 5 11 27 14
48 l6 37 -155 0 -154 0 0 260 0 260 -60 0 -60 0 0 -304z" />
        <path
            d="M4286 965 c-10 -41 -6 -557 5 -577 7 -13 19 -17 52 -15 l42 3 5 246
5 246 70 -244 c38 -134 72 -244 75 -245 31 -7 92 -4 99 5 7 9 64 186 153 474
5 17 10 32 11 32 1 0 2 -116 2 -257 l0 -257 35 -3 c19 -2 45 -1 57 2 l23 5 -1
305 -1 305 -87 0 -87 0 -75 -230 -75 -229 -37 132 c-21 73 -51 176 -68 230
l-30 97 -83 0 c-81 0 -84 -1 -90 -25z" />
        <path
            d="M3035 843 c-52 -9 -64 -14 -88 -39 l-27 -27 0 27 c0 25 -2 26 -55 26
l-55 0 0 -228 0 -228 53 1 52 0 5 155 c5 159 12 190 50 210 48 26 120 -3 120
-47 0 -10 1 -84 2 -165 1 -99 5 -149 12 -150 6 -1 33 -2 59 -2 l48 -1 -3 180
c-3 194 -9 221 -59 257 -28 21 -83 36 -114 31z" />
        <path
            d="M6083 839 c-76 -14 -122 -48 -159 -119 -27 -52 -25 -181 3 -235 45
-86 125 -128 223 -118 123 13 192 98 192 238 0 77 -11 113 -48 162 -43 57
-129 86 -211 72z m105 -111 c44 -48 55 -135 26 -206 -33 -84 -140 -88 -179 -7
-31 66 -12 198 32 224 33 19 97 13 121 -11z" />
        <path
            d="M6889 839 c-90 -14 -129 -53 -129 -133 0 -44 4 -56 28 -79 15 -15 57
-36 93 -48 104 -33 119 -41 130 -61 8 -14 6 -26 -6 -44 -13 -20 -24 -24 -61
-24 -38 0 -51 5 -74 30 -24 26 -35 30 -79 30 -29 0 -51 -5 -51 -10 0 -6 9 -28
20 -49 26 -52 88 -82 172 -83 124 -2 188 42 196 135 7 84 -29 116 -182 164
-33 10 -64 26 -70 36 -18 28 5 52 52 55 34 3 47 -2 67 -22 21 -21 36 -26 75
-26 33 0 50 4 50 13 0 20 -38 75 -63 92 -33 21 -111 32 -168 24z" />
        <path
            d="M5455 828 c-11 -6 -33 -22 -48 -37 -19 -17 -28 -21 -27 -11 7 46 2
50 -55 50 l-55 0 2 -227 3 -228 24 -3 c13 -2 38 -1 56 2 l32 6 1 136 c0 105 4
141 16 160 22 33 57 54 95 57 30 2 31 3 31 55 0 50 -1 52 -27 52 -16 0 -37 -6
-48 -12z" />
        <path
            d="M5785 828 c-11 -6 -32 -22 -47 -36 l-28 -26 0 32 0 32 -55 0 -55 0 0
-225 c0 -124 3 -225 8 -226 112 -17 110 -19 111 138 2 177 12 195 114 217 25
6 27 10 27 56 0 48 -1 50 -27 50 -16 0 -37 -6 -48 -12z" />
        <path
            d="M6615 824 c-16 -8 -38 -25 -47 -37 l-18 -22 0 33 0 32 -57 0 -58 0 3
-221 c1 -122 5 -226 8 -230 4 -8 29 -7 97 0 4 1 7 57 7 126 0 173 22 218 110
227 35 4 35 5 38 56 3 51 3 52 -25 52 -15 0 -41 -7 -58 -16z" />
        <path d="M2582 603 l3 -228 50 0 50 0 3 228 2 227 -55 0 -55 0 2 -227z" />
        <path
            d="M3322 648 c3 -169 5 -186 26 -219 26 -44 68 -63 132 -62 49 1 110 26
110 45 0 6 3 8 7 4 4 -4 8 -15 8 -24 0 -14 10 -17 55 -17 l55 0 2 228 1 227
-58 0 -59 0 -3 -166 c-3 -160 -4 -166 -27 -185 -31 -25 -85 -25 -111 1 -18 18
-20 33 -20 169 0 82 -3 156 -6 165 -5 12 -20 16 -61 16 l-55 0 4 -182z" />
        <path
            d="M3790 824 c0 -4 29 -53 65 -111 36 -57 65 -108 65 -113 0 -4 -31 -56
-70 -114 -38 -58 -69 -106 -67 -107 1 0 26 -2 55 -4 62 -4 67 0 118 91 19 35
37 64 39 64 2 0 22 -34 44 -75 23 -41 45 -76 49 -76 25 -5 114 -4 116 1 2 3
-29 57 -69 120 l-73 115 74 107 75 108 -64 0 -63 0 -38 -65 c-21 -36 -41 -67
-46 -70 -4 -3 -27 27 -50 65 l-42 70 -59 0 c-33 0 -59 -3 -59 -6z" />
        <path
            d="M5042 603 l3 -227 35 -4 c19 -1 45 0 57 3 22 5 22 6 22 230 l0 225
-60 0 -59 0 2 -227z" />
    </g>
</svg>