<svg version="1.0" xmlns="http://www.w3.org/2000/svg" width="617.000000pt" height="364.000000pt"
    viewBox="0 0 617.000000 364.000000" preserveAspectRatio="xMidYMid meet">
    <g transform="translate(0.000000,364.000000) scale(0.100000,-0.100000)" fill="currentColor"
        stroke="none">
        <path
            d="M1930 3438 c-1 -1644 1 -1963 9 -1971 9 -9 964 118 1171 156 l65 12
5 95 5 95 189 370 c103 204 191 374 193 379 3 4 26 -32 52 -80 161 -306 230
-442 224 -448 -3 -3 -71 -6 -149 -6 -102 0 -146 -4 -154 -12 -9 -11 -140 -274
-140 -282 0 -1 196 -3 436 -4 410 -2 436 -1 432 16 -9 32 -693 1532 -699 1532
-4 0 -19 -28 -34 -62 -41 -91 -320 -690 -337 -721 -12 -24 -14 23 -15 363 -1
286 -4 395 -13 405 -7 8 -26 17 -44 20 -70 11 -1172 165 -1183 165 -7 0 -13
-10 -13 -22z m936 -318 c35 -78 64 -149 64 -160 0 -10 -73 -178 -161 -372
-206 -451 -249 -548 -249 -563 0 -10 37 -14 157 -14 86 -1 159 -4 162 -7 3 -3
26 -61 52 -129 l47 -125 -425 0 c-420 0 -424 0 -418 20 3 11 151 336 327 722
176 387 329 725 341 751 24 57 15 68 103 -123z m179 -399 c3 -10 35 -73 70
-140 l65 -122 -2 -313 -3 -314 -147 279 c-82 153 -148 286 -148 294 0 9 9 35
20 59 10 24 37 83 58 132 70 158 74 165 87 125z" />
        <path d="M770 892 c0 -72 15 -86 81 -78 l54 7 2 59 2 60 -69 0 -70 0 0 -48z" />
        <path d="M3610 877 l0 -64 58 2 c31 1 60 3 63 4 3 0 5 27 5 59 l-1 57 -62 3
-63 3 0 -64z" />
        <path
            d="M192 548 l3 -353 232 0 c127 0 234 3 238 7 4 3 7 28 8 54 l2 47 -145
-1 c-80 0 -157 2 -172 5 l-28 5 0 294 0 294 -70 0 -70 0 2 -352z" />
        <path
            d="M2740 550 c0 -192 3 -350 8 -351 4 0 20 -3 36 -5 17 -3 40 -3 54 1
l23 6 -3 279 c-2 154 -1 280 2 280 3 0 11 -21 18 -47 43 -164 148 -509 156
-515 8 -5 107 -1 112 5 5 5 126 387 149 467 15 52 30 98 34 102 3 4 6 -124 6
-285 l0 -292 60 0 60 0 3 353 2 353 -96 -3 -97 -3 -53 -155 c-29 -85 -68 -203
-86 -262 l-34 -108 -37 133 c-21 72 -56 192 -79 265 l-41 132 -99 0 -98 0 0
-350z" />
        <path
            d="M1245 719 c-11 -6 -32 -23 -47 -37 l-28 -26 0 32 0 32 -65 0 -65 0 0
-259 c0 -198 3 -260 13 -263 10 -3 80 -3 110 1 4 1 7 76 7 167 0 134 3 173 17
201 30 65 121 79 163 25 18 -22 20 -41 20 -207 l0 -183 45 -6 c88 -14 85 -21
85 202 0 222 -9 259 -71 303 -39 27 -149 38 -184 18z" />
        <path
            d="M4085 716 c-17 -7 -43 -28 -58 -45 l-27 -33 0 41 0 41 -65 0 -65 0 2
-262 3 -263 63 -3 62 -4 0 143 c0 80 5 159 12 181 15 51 55 84 112 92 l46 7 0
60 c0 58 -1 59 -27 59 -16 -1 -42 -7 -58 -14z" />
        <path
            d="M4465 716 c-17 -7 -43 -28 -58 -45 l-27 -33 0 41 0 41 -65 0 -65 0 0
-260 c0 -143 3 -260 8 -261 4 0 23 -2 42 -5 19 -3 45 -2 58 1 22 5 22 8 22
151 0 159 9 196 54 232 15 11 47 24 72 28 l44 6 0 59 c0 58 -1 59 -27 59 -16
-1 -42 -7 -58 -14z" />
        <path
            d="M4732 704 c-90 -45 -133 -126 -134 -249 0 -87 22 -146 75 -201 92
-97 266 -96 359 3 93 98 96 303 5 402 -66 72 -209 93 -305 45z m190 -101 c48
-42 64 -163 32 -242 -39 -98 -156 -98 -207 0 -14 26 -17 52 -15 111 3 82 21
120 69 146 31 17 95 9 121 -15z" />
        <path
            d="M5425 716 c-17 -7 -43 -28 -58 -45 l-27 -33 -1 34 c-1 18 -1 36 0 41
0 4 -28 7 -64 7 l-65 0 2 -262 3 -263 60 0 60 0 5 160 c3 100 10 168 17 182
21 36 62 62 109 69 l44 6 0 59 c0 58 -1 59 -27 59 -16 -1 -42 -7 -58 -14z" />
        <path
            d="M5700 724 c-91 -37 -120 -73 -120 -151 0 -83 48 -125 186 -159 79
-20 119 -52 109 -87 -11 -34 -34 -47 -87 -47 -39 0 -54 5 -73 25 -14 13 -25
29 -25 35 0 6 -26 10 -65 10 -76 0 -80 -8 -40 -76 37 -63 97 -89 205 -89 133
1 203 49 216 148 13 92 -41 146 -182 185 -99 28 -114 37 -114 72 0 61 103 68
150 10 23 -28 30 -31 75 -28 41 2 51 7 53 23 4 29 -36 85 -77 109 -25 14 -56
21 -115 23 -45 1 -88 0 -96 -3z" />
        <path
            d="M777 714 c-3 -3 -6 -120 -7 -260 l-1 -253 23 -6 c13 -2 43 -3 68 -2
l45 3 3 262 3 262 -64 0 c-35 0 -66 -3 -70 -6z" />
        <path
            d="M1632 513 c3 -188 5 -212 24 -248 30 -57 74 -80 155 -80 56 0 71 4
102 28 36 27 53 34 42 18 -13 -22 27 -42 79 -39 l51 3 0 53 c-1 28 -2 146 -3
262 l-2 210 -64 0 -65 0 0 -173 c0 -94 -4 -184 -10 -199 -28 -74 -145 -78
-171 -5 -5 16 -10 108 -10 203 l0 174 -66 0 -65 0 3 -207z" />
        <path
            d="M2172 698 c79 -121 148 -243 144 -253 -2 -7 -38 -64 -80 -127 -42
-63 -76 -117 -76 -119 0 -2 31 -5 70 -6 l69 -3 46 85 c26 47 50 87 55 90 5 3
27 -27 49 -67 22 -40 45 -80 50 -88 7 -10 31 -15 80 -16 39 -1 71 0 71 3 0 2
-38 65 -84 138 l-84 134 70 103 c39 57 77 110 84 119 8 8 14 19 14 22 0 4 -33
7 -72 7 l-73 -1 -48 -84 c-27 -47 -50 -85 -52 -85 -1 0 -25 38 -51 85 l-49 85
-74 0 -73 0 14 -22z" />
        <path d="M3610 455 l0 -264 48 0 c88 1 81 -22 81 269 l0 260 -64 0 -65 0 0
-265z" />
    </g>
</svg>