<svg version="1.0" xmlns="http://www.w3.org/2000/svg" width="451.000000pt" height="451.000000pt"
	viewBox="0 0 451.000000 451.000000" preserveAspectRatio="xMidYMid meet">
	<g transform="translate(0.000000,451.000000) scale(0.100000,-0.100000)" fill="#000000"
		stroke="none">
		<path
			d="M133 4048 c-4 -7 -9 -818 -10 -1803 -2 -1415 0 -1795 10 -1815 7 -13
23 -27 37 -30 14 -3 281 31 595 77 314 45 798 114 1078 153 279 39 521 76 538
82 17 6 34 21 40 35 5 13 9 89 9 168 l0 144 -148 278 c-82 153 -177 332 -212
398 -35 66 -92 173 -127 238 -35 64 -66 130 -69 145 -4 21 6 56 39 128 25 54
80 178 122 274 42 96 85 190 95 209 l17 34 73 -139 c41 -76 103 -193 139 -259
l66 -120 5 -590 5 -590 97 190 c53 105 169 332 257 505 88 173 205 401 258
507 54 106 101 189 105 185 3 -4 95 -178 203 -387 108 -209 221 -427 251 -484
30 -57 53 -105 51 -107 -2 -2 -123 -7 -268 -10 -280 -7 -311 -12 -325 -56 -4
-13 -52 -113 -106 -223 -55 -110 -106 -215 -113 -232 l-14 -33 800 0 c534 0
799 3 799 10 0 11 -1275 2818 -1284 2828 -3 3 -8 3 -10 1 -2 -2 -101 -215
-221 -474 -213 -461 -399 -860 -453 -973 l-27 -57 -5 726 c-5 694 -6 728 -24
748 -24 27 -26 27 -201 50 -82 11 -321 45 -530 75 -848 123 -1450 206 -1491
206 -23 0 -46 -6 -51 -12z m1602 -355 c112 -240 245 -535 245 -543 0 -5 -55
-130 -121 -277 -222 -491 -430 -946 -494 -1083 -35 -74 -86 -188 -113 -252
-45 -106 -48 -118 -32 -123 10 -3 142 -5 294 -3 169 1 279 -1 285 -7 10 -10
181 -460 181 -476 0 -4 -348 -8 -780 -8 -603 0 -780 3 -780 12 0 17 1274 2817
1282 2817 3 0 19 -26 33 -57z" />
	</g>
</svg>