<svg xmlns="http://www.w3.org/2000/svg" xmlns:xlink="http://www.w3.org/1999/xlink" id="图层_1"
    data-name="图层 1" viewBox="0 0 1426.64 435.13" style="">
    <defs>
        <style>
            .cls-1{fill:url(#未命名的渐变_36);}.cls-2{fill:url(#未命名的渐变_30);}.cls-3{fill:url(#未命名的渐变_36-2);}.cls-4{fill:url(#未命名的渐变_36-3);}.cls-5{fill:url(#未命名的渐变_36-4);}.cls-6{fill:url(#未命名的渐变_36-5);}.cls-10,.cls-11,.cls-12,.cls-13,.cls-14,.cls-7,.cls-8,.cls-9{fill:none;stroke-miterlimit:10;stroke-width:38px;}.cls-7{stroke:url(#未命名的渐变_30-2);}.cls-8{stroke:url(#未命名的渐变_30-3);}.cls-9{stroke:url(#未命名的渐变_30-4);}.cls-10{stroke:url(#未命名的渐变_30-5);}.cls-11{stroke:url(#未命名的渐变_30-6);}.cls-12{stroke:url(#未命名的渐变_30-7);}.cls-13{stroke:url(#未命名的渐变_36-6);}.cls-14{stroke:url(#未命名的渐变_30-8);}</style>
        <linearGradient id="未命名的渐变_36" x1="235.21" y1="245.13" x2="312.57" y2="245.13"
            gradientUnits="userSpaceOnUse">
            <stop offset="0" stop-color="#f9590e" />
            <stop offset="1" stop-color="#eb0727" />
        </linearGradient>
        <linearGradient id="未命名的渐变_30" x1="308.4" y1="335.72" x2="379.01" y2="335.72"
            gradientUnits="userSpaceOnUse">
            <stop offset="0" stop-color="#0153da" />
            <stop offset="1" stop-color="#1264eb" />
        </linearGradient>
        <linearGradient id="未命名的渐变_36-2" x1="364.43" y1="269.25" x2="478.96" y2="269.25"
            xlink:href="#未命名的渐变_36" />
        <linearGradient id="未命名的渐变_36-3" x1="36.67" y1="220.7" x2="376.87" y2="220.7"
            xlink:href="#未命名的渐变_36" />
        <linearGradient id="未命名的渐变_36-4" x1="203.6" y1="280.82" x2="274.93" y2="280.82"
            xlink:href="#未命名的渐变_36" />
        <linearGradient id="未命名的渐变_36-5" x1="204.16" y1="278.55" x2="404.97" y2="278.55"
            xlink:href="#未命名的渐变_36" />
        <linearGradient id="未命名的渐变_30-2" x1="538.16" y1="139.53" x2="782.59" y2="139.53"
            xlink:href="#未命名的渐变_30" />
        <linearGradient id="未命名的渐变_30-3" x1="516.68" y1="269.63" x2="673.79" y2="269.63"
            xlink:href="#未命名的渐变_30" />
        <linearGradient id="未命名的渐变_30-4" x1="693.45" y1="263.51" x2="798.47" y2="263.51"
            xlink:href="#未命名的渐变_30" />
        <linearGradient id="未命名的渐变_30-5" x1="843.1" y1="154.39" x2="1068.99" y2="154.39"
            xlink:href="#未命名的渐变_30" />
        <linearGradient id="未命名的渐变_30-6" x1="830.3" y1="327.64" x2="1080.89" y2="327.64"
            xlink:href="#未命名的渐变_30" />
        <linearGradient id="未命名的渐变_30-7" x1="1138.75" y1="139.53" x2="1347.41"
            y2="139.53" xlink:href="#未命名的渐变_30" />
        <linearGradient id="未命名的渐变_36-6" x1="1127.7" y1="291.9" x2="1366.41" y2="291.9"
            xlink:href="#未命名的渐变_36" />
        <linearGradient id="未命名的渐变_30-8" x1="1108.11" y1="220.81" x2="1372.43"
            y2="220.81" xlink:href="#未命名的渐变_30" />
    </defs>
    <path class="cls-1 anQpfiVQ_0" width="77.36" height="77.36"
        d="M 273.21000000000004,206.46 L 274.57,206.46 A 38,38,0,0,1,312.57,244.46 L 312.57,245.82 A 38,38,0,0,1,274.57,283.82 L 273.21000000000004,283.82 A 38,38,0,0,1,235.21,245.82 L 235.21,244.46 A 38,38,0,0,1,273.21000000000004,206.46" />
    <path class="cls-2 anQpfiVQ_1"
        d="M361,317.68h0a18,18,0,0,0-11.51,4.15h0L308.4,353.66l52.57.11h0a18,18,0,0,0,18-18h0A18,18,0,0,0,361,317.68Z" />
    <path class="cls-3 anQpfiVQ_2"
        d="M387.8,160.64a135,135,0,0,1-23.37,117.91h.08a53.16,53.16,0,0,1,26.38,99.31,110.64,110.64,0,0,0-3.09-217.22Z" />
    <path class="cls-4 anQpfiVQ_3"
        d="M376.87,194.09a133.72,133.72,0,0,0-258-48.41A81.2,81.2,0,0,0,115,194c2.82,12.08,8.79,24.79,21.13,31.29,0,0-34.5-10.22-38.39-54.11a110.12,110.12,0,0,0-61.08,99.45C37.11,331.36,87.12,380,147.81,380h60s-25.74-16.39,6.88-41l14.56-11,8.33-6.39a82.55,82.55,0,1,1,111.71-45.3A133.12,133.12,0,0,0,376.87,194.09Z" />
    <path class="cls-5 anQpfiVQ_4"
        d="M248.27,308.43c1.51.56,3,1.05,4.59,1.5l13.63-10.77,8.44-6.6s-4.65,1.55-7.83,1a52.46,52.46,0,0,1-12.32-2.86,49.25,49.25,0,0,1-32.1-39H203.6A68,68,0,0,0,248.27,308.43Z" />
    <path class="cls-6 anQpfiVQ_5"
        d="M404.91,332.74A45,45,0,0,0,333.29,299h0L260.9,353.66h33.2l51.26-39.39a24,24,0,0,1,14.48-5.06H360a25.94,25.94,0,0,1,0,51.88H235.25L319,295.41h0l.14-.11a2.75,2.75,0,0,0,.26-.22l1.11-1h0a66.71,66.71,0,0,0,6-92,70.31,70.31,0,0,0-97.4-10A67.17,67.17,0,0,0,204.16,234h19.31a48.37,48.37,0,0,1,17.32-27.07,51.15,51.15,0,0,1,38.14-10.62c26.54,3.22,46.28,26.86,44,52.71A48.35,48.35,0,0,1,307,280.7L268,311.34l-54.48,42.74a14.3,14.3,0,0,0-4.77,16.1A14.66,14.66,0,0,0,222.58,380h133.8c1.18.1,2.38.15,3.59.15A45.05,45.05,0,0,0,404.91,332.74Z" />
    <path class="cls-7 anQpfiVQ_6" d="M538.16,139.53L782.59,139.53" />
    <path class="cls-8 anQpfiVQ_7" d="M524.67,267.06L654.79,206.78L654.79,362.23" />
    <path class="cls-9 anQpfiVQ_8" d="M706.88,224.43L785.04,302.58" />
    <path class="cls-10 anQpfiVQ_9" d="M843.1,154.39L1068.99,154.39" />
    <path class="cls-11 anQpfiVQ_10" d="M830.3,327.64L1080.89,327.64" />
    <path class="cls-12 anQpfiVQ_11" d="M1138.75,139.53L1347.41,139.53" />
    <path class="cls-13 anQpfiVQ_12"
        d="M1169.12,224.43,1147.56,310a28.13,28.13,0,0,0,27.28,35h138.81a33.75,33.75,0,0,0,33.76-33.76h0a33.76,33.76,0,0,0-33.76-33.76l-161.33,51.88" />
    <path class="cls-14 anQpfiVQ_13" d="M1108.11,220.81L1372.43,220.81" />
</svg>