<svg id="Layer_1" xmlns="http://www.w3.org/2000/svg" xmlns:xlink="http://www.w3.org/1999/xlink"
    viewBox="0 0 1228.25 312.66">
    <defs>
        <style>.cls-1{fill:url(#_命名的渐变_25);}</style>
        <linearGradient id="_命名的渐变_25" x1="27.28" y1="34.35" x2="312.19" y2="318.32"
            gradientTransform="matrix(1, 0, 0, 1, 0, 0)" gradientUnits="userSpaceOnUse">
            <stop offset="0" stop-color="#00d1ff" />
            <stop offset=".41" stop-color="#2e69fe" />
            <stop offset="1" stop-color="#9a51fb" />
        </linearGradient>
    </defs>
    <path class="cls-1"
        d="M302.86,130.66v-56.16h-62.86v-17.35c0-31.56-25.59-57.14-57.15-57.14h0V91.18c-18.29-11.21-39.82-17.68-62.84-17.68C53.83,73.5,0,126.94,0,192.6s53.83,119.06,120,119.06c36.44,0,69.13-16.2,91.15-41.71,22.03,26.1,54.96,42.71,91.69,42.71v-57.15c-34.72,0-62.85-28.2-62.85-62.92v-61.94h62.86ZM120,254.96c-34.72,0-62.86-27.9-62.86-62.35h0c0-34.45,28.14-62.4,62.86-62.4s62.47,27.58,62.84,61.72v.68h0c0,.13,0,.26,0,.39-.25,34.23-28.29,61.97-62.85,61.97Z" />
    <g>
        <path fill="#fff"
            d="M621.81,162v27.54c-12.85,13.26-26.62,25.4-41.31,36.41-14.69,11.01-31.57,21.17-50.64,30.44-19.08,9.28-41.11,18-66.09,26.16-24.99,8.16-54.31,16.01-87.97,23.56l-14.69-25.7c31.21-6.73,58.54-13.72,82-20.96,23.46-7.24,43.85-14.69,61.2-22.34,17.33-7.65,32.17-15.5,44.52-23.56,12.34-8.06,23.1-16.47,32.28-25.24h-96.69c-2.45,2.04-4.95,4.03-7.5,5.97-2.55,1.94-5.15,3.93-7.8,5.97,5.71,3.27,11.52,6.68,17.44,10.25,5.91,3.57,11.63,7.19,17.13,10.86l-17.75,23.25c-5.71-4.48-12.29-9.18-19.74-14.07-7.45-4.9-14.74-9.49-21.88-13.77-8.16,5.1-16.78,10.1-25.85,14.99-9.08,4.9-18.82,9.79-29.22,14.69l-14.69-25.09c23.05-10.6,44.41-22.38,64.1-35.34,19.68-12.95,36.56-26.06,50.64-39.32-15.91,6.12-32.94,11.93-51.1,17.44-18.16,5.51-37.74,10.71-58.75,15.61l-12.85-25.4c43.86-9.18,82.61-20.45,116.27-33.81,33.66-13.36,62.01-28.3,85.06-44.83h-100.97c-2.04,1.64-4.03,3.17-5.97,4.59-1.94,1.43-3.93,2.86-5.97,4.28,5.1,2.86,10.25,5.71,15.45,8.57,5.2,2.86,10.15,5.92,14.84,9.18l-16.22,22.03c-4.49-3.06-10.3-6.73-17.44-11.02-7.14-4.28-14.28-8.36-21.42-12.24-6.12,3.88-12.39,7.55-18.82,11.01-6.43,3.47-12.9,6.94-19.43,10.4l-16.22-24.48c11.01-5.51,21.72-11.42,32.13-17.75,10.4-6.32,20.35-12.85,29.83-19.58s18.25-13.56,26.31-20.5c8.06-6.93,15.15-13.77,21.27-20.5l25.7,13.16c-2.25,2.86-4.49,5.56-6.73,8.11-2.25,2.55-4.7,5.25-7.34,8.11h114.13v27.84c-13.26,11.22-27.95,21.78-44.06,31.67-16.12,9.9-34.07,19.23-53.85,28l14.69,8.57c-4.9,5.92-9.9,11.53-14.99,16.83h108.93Z" />
        <path fill="#fff"
            d="M796.82,266.03c45.28,1.02,90.46,.41,135.55-1.84l-6.43,29.99c-43.86,2.04-87.71,2.65-131.57,1.84-10.81-.21-20.35-.82-28.61-1.84-8.26-1.02-15.66-2.71-22.18-5.05-6.53-2.35-12.5-5.56-17.9-9.64-5.41-4.08-10.66-9.38-15.76-15.91-5.31,6.12-10.61,12.13-15.91,18.05-5.31,5.91-10.92,11.63-16.83,17.13l-20.19-24.48c6.73-6.53,13.41-13.05,20.04-19.58,6.63-6.53,13-13.36,19.12-20.5v-77.72h-30.29v-30.6h59.05v108.93c3.87,5.92,8,10.81,12.39,14.69,4.38,3.88,9.43,7.04,15.15,9.49,5.71,2.45,12.13,4.18,19.28,5.2,7.14,1.02,15.5,1.63,25.09,1.84Zm-80.17-162.17c-1.84-3.67-4.44-8-7.8-13-3.37-5-6.94-10.15-10.71-15.45-3.78-5.3-7.55-10.35-11.32-15.15-3.78-4.79-7.19-8.82-10.25-12.09l21.72-17.44c2.85,3.06,6.07,6.78,9.64,11.17,3.57,4.39,7.24,9.03,11.01,13.92,3.77,4.9,7.39,9.84,10.86,14.84,3.47,5,6.53,9.44,9.18,13.31l-22.34,19.89Zm14.08-.92c41.2-22.84,70.58-48.85,88.12-78.02h24.17c10.4,15.1,22.79,28.81,37.18,41.15,14.38,12.34,31.46,23.82,51.25,34.42l-13.46,28.46c-5.31-3.06-10.4-6.17-15.3-9.33-4.9-3.16-9.69-6.37-14.38-9.64v15.6h-41.61v24.78h71.6v26.93h-71.6v53.55c0,9.38-2.55,16.17-7.65,20.35-5.1,4.18-13.97,6.68-26.62,7.5l-15.6,1.53-8.87-28.15,14.07-1.53c3.26-.41,5.91-.81,7.96-1.22,2.04-.41,3.57-1.07,4.59-1.99,1.02-.92,1.73-2.14,2.14-3.67,.41-1.53,.61-3.72,.61-6.58v-39.78h-71.6v-26.93h71.6v-24.78h-45.28v-12.85c-4.28,3.06-8.67,6.02-13.16,8.87-4.49,2.86-9.18,5.71-14.07,8.57l-14.08-27.23Zm1.53,130.65c7.75-6.93,15.55-15.3,23.41-25.09,7.85-9.79,15.15-19.38,21.88-28.76l19.89,15.91c-6.94,9.59-14.49,19.48-22.64,29.68-8.16,10.2-16.12,19.18-23.87,26.93l-18.66-18.66Zm99.75-182.06c-11.22,17.55-25.7,33.76-43.45,48.65h86.9c-9.18-7.54-17.39-15.3-24.63-23.25-7.24-7.96-13.52-16.42-18.82-25.4Zm43.75,129.43c3.67,3.06,7.75,6.78,12.24,11.17,4.48,4.39,8.87,8.87,13.16,13.46,4.28,4.59,8.36,9.13,12.24,13.62,3.87,4.49,7.14,8.37,9.79,11.63l-18.67,21.72c-1.84-3.06-4.69-6.93-8.57-11.63-3.88-4.69-8.06-9.53-12.54-14.53-4.49-5-8.98-9.94-13.46-14.84-4.49-4.9-8.37-8.97-11.63-12.24l17.44-18.36Z" />
        <path fill="#fff"
            d="M1100.35,152.52c-4.69,8.37-10.05,17.29-16.06,26.77-6.02,9.49-12.14,18.77-18.36,27.84-6.22,9.08-12.24,17.39-18.05,24.94-5.81,7.55-10.86,13.46-15.15,17.75l123.61-6.73c-7.55-10.2-14.84-19.89-21.88-29.07-7.04-9.18-13.21-16.83-18.51-22.95l25.7-18.66c5.1,5.92,11.12,13.16,18.05,21.72,6.93,8.57,14.08,17.55,21.42,26.93,7.34,9.38,14.48,18.77,21.42,28.15,6.93,9.38,13.05,17.85,18.36,25.4l-24.17,25.09c-2.65-4.08-5.61-8.37-8.87-12.85-3.27-4.49-6.63-9.28-10.1-14.38-7.14,.41-17.39,.87-30.75,1.38-13.36,.51-28,1.17-43.91,1.99-15.91,.81-32.13,1.68-48.65,2.6-16.52,.92-31.42,1.99-44.67,3.21-4.28,.41-8.31,.92-12.09,1.53-3.78,.61-7.3,1.12-10.56,1.53l-9.18-31.21c5.71-2.04,9.69-4.03,11.93-5.97,2.24-1.94,4.48-3.83,6.73-5.66,5.1-4.9,10.56-10.81,16.37-17.75,5.81-6.93,11.63-14.38,17.44-22.34,5.81-7.96,11.42-16.16,16.83-24.63,5.4-8.46,10.35-16.67,14.84-24.63h-96.38v-30.29h262.53v30.29h-127.9Zm101.89-82.61h-210.51v-29.99h210.51v29.99Z" />
    </g>
</svg>