<svg xmlns="http://www.w3.org/2000/svg" width="32" height="32" viewBox="0 0 36 36"><path fill="#DE2910" d="M36 27a4 4 0 0 1-4 4H4a4 4 0 0 1-4-4V9a4 4 0 0 1 4-4h28a4 4 0 0 1 4 4v18z"/><g fill="#FFF"><path d="M19.626 9.201c-.604-.314-1.289-.481-2.035-.31c-.906.208-2.011 1.148-2.312 2.24c-.142.515-.261.97-.254 1.391c.005.29.004.774.039 1.252c.024.339.193 1.071.461 1.717l.017-.006c.147.491.633 1.253 1.109 1.878c.546.717.973 1.04 1.059 1.039a.564.564 0 0 1-.162-.137c-.312-.391-.624-1.104-.688-1.587c-.124-.943.036-1.625.297-2.444c.065-.205.2-.264.289-.211c.007.004.011.013.018.019c.055.051.089.144.04.314c-.125.438-.431 1.54-.268 2.322c.15.721.364 1.151.617 1.455a2.555 2.555 0 0 1-.223-.994c-.004-.224-.023-.446.089-.647c.188-.337.462-.518.779-.689c.219-.118.425-.279.614-.4c.86-.548 1.149-1.632 1.125-2.07l-.021-.327c.018-.119-.036-.446-.179-.774a3.674 3.674 0 0 0-.412-.673c-.069-.095-.108-.204-.146-.271c-.147-.255-.147-.544-.145-.727c.001-.216.029-.241.091-.344c.049-.082.102-.193.268-.282c.122-.064.397-.045.559.038c.138.069.164.063.235.102c.064.035.231.123.221.088c-.039-.132-.523-.672-1.082-.962zm-3.738 9.867c-.941-.129-1.558-.463-2.28-.931c-.179-.116-.202-.261-.13-.333l.006-.003c.059-.052.166-.066.332.034c.391.236 1.373.821 2.17.871c.649.04 1.087-.031 1.43-.161a2.642 2.642 0 0 1-.89-.068c-.217-.057-.436-.099-.6-.26c-.273-.271-.374-.584-.454-.936c-.055-.243-.154-.484-.22-.699c-.295-.976-1.261-1.547-1.69-1.642l-.32-.067c-.11-.05-.44-.084-.794-.037a3.633 3.633 0 0 0-.759.216c-.111.042-.225.049-.3.068c-.286.073-.564-.005-.739-.056c-.208-.06-.225-.094-.307-.182c-.066-.069-.159-.148-.2-.333c-.029-.134.064-.394.187-.528c.104-.112.105-.14.161-.199c.051-.053.181-.189.144-.188c-.136 0-.786.32-1.215.78c-.466.498-.812 1.112-.848 1.876c-.043.929.564 2.247 1.534 2.832c.456.274.863.513 1.271.619c.281.073.746.205 1.216.301c.333.067 1.083.104 1.777.02v-.019c.513-.009 1.377-.272 2.106-.56c.921-.366 1.371-.736 1.303-.77l-.012.01c-.009.01-.026.013-.044.016c-.039.029-.065.06-.125.086c-.457.196-1.228.31-1.71.243zm2.516 1.171c-.061-.864-.228-1.358-.306-1.439c.006.026.018.038.022.068c.061.496-.047 1.267-.247 1.712c-.389.867-.883 1.364-1.535 1.927c-.108.092-.214.119-.288.099a.122.122 0 0 1-.094-.094c-.015-.072.024-.176.15-.291c.336-.309 1.175-1.085 1.447-1.838c.21-.583.269-1.009.25-1.365a2.584 2.584 0 0 1-.343.872c-.119.189-.225.385-.429.492c-.341.179-.67.18-1.029.148c-.247-.02-.508.002-.733-.002c-1.02-.014-1.856.734-2.076 1.114l-.161.285c-.081.089-.213.393-.274.745c-.047.265-.037.56-.025.789c.006.118-.022.229-.026.307c-.018.294-.176.536-.278.688c-.12.179-.157.185-.265.237c-.085.041-.19.106-.379.09c-.136-.013-.356-.18-.446-.338c-.076-.133-.102-.142-.141-.214c-.035-.064-.125-.23-.136-.194c-.041.13.067.847.375 1.394c.334.596.815 1.11 1.533 1.376c.871.322 2.311.143 3.162-.606c.401-.352.751-.669.976-1.024c.155-.245.421-.648.655-1.067c.165-.296.425-1.002.556-1.688l-.017-.005c.145-.491.157-1.394.102-2.178z"/><path d="M24.492 23.068c-.181-.503-.346-.943-.596-1.283c-.171-.234-.449-.629-.754-1.001c-.215-.262-.775-.762-1.367-1.136l-.009.014c-.405-.315-1.241-.657-1.99-.893c-.783-.246-1.311-.285-1.453-.252a.549.549 0 0 1 .218.021c.48.141 1.144.549 1.473.908c.641.703.898 1.354 1.155 2.176c.065.207-.014.334-.12.337c-.003 0-.003.005-.006.005c-.005 0-.006-.006-.009-.008c-.075-.007-.159-.064-.218-.236c-.149-.431-.528-1.509-1.109-2.059c-.535-.505-.957-.735-1.339-.841c-.071-.019-.108-.05-.146-.079c-.005.004-.01.003-.015.009l.143.085c.199.107.518.359.756.683c.131.182.275.352.3.581c.041.382-.078.688-.237 1.013c-.11.223-.186.473-.271.681c-.387.943.002 1.995.275 2.339l.206.255c.054.108.288.343.593.528c.229.141.508.239.727.314c.111.037.204.103.275.136c.267.123.434.36.538.511c.123.177.115.214.124.334c.007.094.028.215-.056.384c-.062.122-.298.266-.477.293c-.152.021-.17.042-.251.052c-.072.009-.261.032-.23.056c.105.086.812.248 1.434.162c.677-.092 1.332-.352 1.842-.921c.618-.697.977-2.103.594-3.168z"/><path d="M27.01 15.069c-.496-.786-1.747-1.519-2.878-1.444c-.53.036-1.001.074-1.395.219c-.273.1-.73.258-1.17.449c-.312.135-.946.537-1.468 1.002l.011.013c-.416.302-.976 1.012-1.408 1.667c-.455.689-.63 1.171-.635 1.313c.014-.057.027-.115.073-.189c.266-.424.838-.952 1.274-1.171c.85-.425 1.546-.498 2.406-.522c.217-.006.317.103.293.205a.139.139 0 0 1-.025.046c-.041.057-.116.107-.271.115c-.454.026-1.595.099-2.281.509c-.632.379-.968.723-1.173 1.061a.367.367 0 0 1-.117.121c.002.005 0 .009.004.015l.122-.115c.157-.161.488-.398.864-.538c.21-.078.414-.169.642-.13c.379.065.641.265.907.508c.185.167.404.309.579.447c.802.631 1.921.547 2.327.38l.302-.129c.117-.021.407-.182.671-.424c.197-.182.369-.421.499-.611c.067-.098.156-.168.208-.227c.192-.223.465-.318.638-.377c.204-.069.237-.051.355-.026c.093.019.215.031.354.159c.101.093.174.36.148.54c-.021.152-.004.175-.018.255c-.012.072-.039.259-.009.237c.111-.078.462-.713.551-1.335c.096-.675.028-1.376-.38-2.023z"/></g><path fill="#DE2910" d="m17.79 12.618l-.366.552l-.627-.147l-.017-.004l.411.519l-.334.55l-.009.016l.621-.231l.433.502l-.029-.663l.594-.25l.017-.007l-.639-.177zm-4.579 4.06l-.002-.018l-.342.567l-.652-.125l.433.502l-.31.564l-.009.016l.611-.257l.44.469l.013.014l-.056-.66l.583-.274l.017-.008l-.645-.151zm10.348-.192l-.643-.163l-.07-.659l-.353.56l-.631-.133l-.017-.004l.423.51l-.323.558l-.008.016l.615-.246l.431.479l.013.013l-.042-.661l.588-.262zm-7.84 5.584l-.002-.017l-.34.568l-.632-.117l-.018-.004l.435.499l-.306.567l-.009.016l.609-.261l.443.467l.013.014l-.06-.659l.582-.279l.016-.008l-.646-.146zm5.777-.507l-.001-.018l-.373.549l-.625-.156l-.018-.004l.405.524l-.341.547l-.009.015l.623-.224l.413.493l.012.015l-.018-.662l.596-.243l.018-.006l-.636-.186z"/></svg>