<svg xmlns="http://www.w3.org/2000/svg" width="32" height="32" viewBox="0 0 36 36"><path fill="#EEE" d="M36 27a4 4 0 0 1-4 4H4a4 4 0 0 1-4-4V9a4 4 0 0 1 4-4h28a4 4 0 0 1 4 4v18z"/><path fill="#C60C30" d="M21.441 13.085a6 6 0 0 0-8.356 1.474A3.001 3.001 0 0 0 18 18a3 3 0 0 1 4.915 3.442a6 6 0 0 0-1.474-8.357z"/><path fill="#003478" d="M22.178 17.264A3 3 0 0 0 18 18a3.001 3.001 0 0 1-4.915-3.442a6 6 0 1 0 9.829 6.882a2.997 2.997 0 0 0-.736-4.176z"/><path fill="#292F33" d="m24.334 25.572l1.928-2.298l.766.643l-1.928 2.298zm2.57-3.063l1.928-2.297l.766.643l-1.928 2.297zm-1.038 4.351l1.928-2.297l.766.643l-1.928 2.297zm2.572-3.066l1.93-2.297l.766.644l-1.93 2.296zm-1.041 4.352l1.93-2.297l.765.643l-1.929 2.297zm2.571-3.065l1.927-2.3l.767.643l-1.927 2.3zm.004-14.162l.766-.643l1.93 2.299l-.767.643zM27.4 7.853l.766-.643l1.928 2.299l-.767.642zm-1.533 1.288l.766-.643l4.5 5.362l-.766.643zm-1.532 1.284l.767-.643l1.927 2.298l-.766.642zm2.57 3.065l.766-.643l1.93 2.297l-.765.643zM6.4 20.854l.766-.643l4.499 5.363l-.767.643zM4.87 22.14l.765-.642l1.929 2.298l-.767.643zm2.567 3.066l.766-.643l1.93 2.297l-.766.643zm-4.101-1.781l.766-.643l4.5 5.362l-.767.643zm-.001-10.852l4.498-5.362l.767.642l-4.5 5.363zm1.532 1.287l4.5-5.363l.766.643l-4.5 5.362zM6.4 15.145l4.5-5.363l.766.643l-4.5 5.363z"/></svg>