<svg xmlns="http://www.w3.org/2000/svg" width="32" height="32" viewBox="0 0 36 36"><path fill="#FE0000" d="M32 5H17v13H0v9a4 4 0 0 0 4 4h28a4 4 0 0 0 4-4V9a4 4 0 0 0-4-4z"/><path fill="#000095" d="M17 5H4a4 4 0 0 0-4 4v9h17V5zm-6.063 4.61l2.035-.548l-1.491 1.487a2.881 2.881 0 0 0-.544-.939zm.251 1.89a2.438 2.438 0 1 1-4.876 0a2.438 2.438 0 0 1 4.876 0zm0-4.222l-.548 2.035a2.871 2.871 0 0 0-.939-.544l1.487-1.491zM8.75 6.625l.542 2.034c-.175-.033-.357-.052-.542-.052s-.367.019-.542.052l.542-2.034zm-.951 2.144a2.881 2.881 0 0 0-.939.544l-.548-2.035l1.487 1.491zm-1.236.841a2.871 2.871 0 0 0-.544.939L4.528 9.062l2.035.548zm-.654 1.348a2.854 2.854 0 0 0 0 1.084L3.875 11.5l2.034-.542zm.11 1.492c.121.348.308.666.544.939l-2.035.548l1.491-1.487zm.293 3.272l.548-2.035c.273.236.591.423.939.544l-1.487 1.491zm2.438.653l-.542-2.034a2.854 2.854 0 0 0 1.084 0l-.542 2.034zm.951-2.144c.348-.121.666-.308.939-.544l.548 2.035l-1.487-1.491zm1.236-.841c.237-.273.423-.591.544-.939l1.491 1.487l-2.035-.548zm.654-1.348a2.854 2.854 0 0 0 0-1.084l2.034.542l-2.034.542z"/><path fill="#FFF" d="M9.292 8.659L8.75 6.625l-.542 2.034c.175-.033.357-.052.542-.052s.367.019.542.052zM5.857 11.5c0-.185.018-.367.052-.542l-2.034.542l2.034.542a2.93 2.93 0 0 1-.052-.542zm2.351 2.841l.542 2.034l.542-2.034a2.854 2.854 0 0 1-1.084 0zm3.435-2.841c0 .185-.018.367-.052.542l2.034-.542l-2.034-.542c.033.175.052.357.052.542zm-.455-4.222L9.701 8.769c.348.122.666.308.939.544l.548-2.035zm-.251 6.112l2.035.548l-1.491-1.487a2.881 2.881 0 0 1-.544.939zm-4.625 2.332l1.487-1.491a2.889 2.889 0 0 1-.939-.544l-.548 2.035zm.251-6.112l-2.035-.548l1.491 1.487c.121-.348.307-.665.544-.939zm3.138 4.621l1.487 1.491l-.548-2.035a2.881 2.881 0 0 1-.939.544zM6.019 12.45l-1.491 1.487l2.035-.548a2.86 2.86 0 0 1-.544-.939zm1.78-3.681L6.312 7.278l.548 2.035c.274-.237.591-.423.939-.544zm5.173.293l-2.035.548c.237.273.423.591.544.939l1.491-1.487z"/><circle cx="8.75" cy="11.5" r="2.438" fill="#FFF"/></svg>