<svg xmlns="http://www.w3.org/2000/svg" viewBox="0 0 188.67 67.65"><defs><style>.cls-1{fill:#2d88ca;}.cls-2{fill:#0d3994;}.cls-3{fill:#fff;}</style></defs><g id="图层_2" data-name="图层 2"><g id="图层_1-2" data-name="图层 1"><g id="图层_2-2" data-name="图层 2"><g id="图层_1-2-2" data-name="图层 1-2"><polygon class="cls-1" points="9.64 16.85 23.75 32.97 37.55 32.97 51.66 16.85 51.66 30.11 61.3 30.11 61.13 0 52.21 0 30.65 24.92 9.09 0 0.17 0 0 39.23 9.64 39.23 9.64 16.85"/><polygon class="cls-2" points="9.64 50.8 23.75 34.68 37.55 34.68 51.66 50.8 51.66 37.54 61.3 37.54 61.13 67.65 52.21 67.65 30.65 42.73 9.09 67.65 0.17 67.65 0 34.69 9.64 34.69 9.64 50.8"/><path class="cls-3" d="M82.92,12.06H93.35L93,11.38c-.13-.22-.25-.43-.38-.62l3-.78c.23.32.45.67.67,1s.43.71.63,1H107v2.39H82.92Zm23.82,9.23v4.5h-2.88V23.34h-3.17l1.15,1.6c-.89.2-1.85.36-2.9.51s-2.15.27-3.3.39v1l8.54-.56.19,1.76-8.73.59v.9l10.3-.64.18,1.92-10.48.69a1.7,1.7,0,0,0,.08.55.67.67,0,0,0,.29.31,1.46,1.46,0,0,0,.61.16,8.34,8.34,0,0,0,1,0h5.51a1.93,1.93,0,0,0,1.26-.3,2.1,2.1,0,0,0,.44-1.32,6,6,0,0,0,1.29.51c.51.14,1,.25,1.37.32a5.09,5.09,0,0,1-.37,1.49,2.24,2.24,0,0,1-.73.91,2.92,2.92,0,0,1-1.17.47,9.21,9.21,0,0,1-1.74.13h-6.1a16.28,16.28,0,0,1-2.31-.14,4.27,4.27,0,0,1-1.51-.5,2,2,0,0,1-.82-.94,4.29,4.29,0,0,1-.28-1.5l-8.86.58-.16-2,9-.58v-.93l-7.61.5-.19-1.78L92.5,27v-.82c-.85.07-1.69.13-2.52.17l-2.4.12a8.08,8.08,0,0,0-.2-.85,8.64,8.64,0,0,0-.31-.85c1.12-.06,2.28-.13,3.49-.22s2.39-.19,3.56-.32,2.29-.25,3.34-.39,2-.3,2.81-.46H86V26H83.21V21.29Zm-3.33-5.88v4.85H86.64V15.41ZM89.81,18.5h10.25V17.17H89.81Z"/><path class="cls-3" d="M112.78,20.68h-3.57V17.73h4v-3L111.7,15l-1.47.19a6.57,6.57,0,0,0-.33-1.23,10.9,10.9,0,0,0-.52-1.22c.76-.13,1.54-.27,2.32-.43s1.54-.33,2.28-.52,1.46-.38,2.13-.58a18.58,18.58,0,0,0,1.84-.65l1.78,2.58c-.53.19-1.08.37-1.66.54s-1.18.33-1.8.47v3.62h3.3v3h-3.3v.37l.76.8c.33.36.67.73,1,1.12l1,1.1.64.74-1.83,2.47A12.73,12.73,0,0,0,117.2,26c-.29-.49-.59-1-.91-1.51V35.13H113.2V25.61c-.41,1-.87,1.94-1.37,2.87a17.89,17.89,0,0,1-1.5,2.34,9.48,9.48,0,0,0-.65-1.54q-.45-.86-.81-1.47a13,13,0,0,0,1.1-1.46,16.63,16.63,0,0,0,1-1.77c.34-.63.66-1.28,1-1.94A16,16,0,0,0,112.78,20.68Zm17.43,2.66,3,.85a15.84,15.84,0,0,1-2.08,4.1,14.22,14.22,0,0,1-3,3.05,17.09,17.09,0,0,1-3.89,2.18A30.38,30.38,0,0,1,119.4,35a7.17,7.17,0,0,0-.69-1.52,8.36,8.36,0,0,0-1-1.36,29,29,0,0,0,4.41-1.1,15,15,0,0,0,3.52-1.73,11.46,11.46,0,0,0,2.68-2.52,12.91,12.91,0,0,0,1.89-3.43Zm-11.05-.85A20.38,20.38,0,0,0,120.23,19c.3-1.39.53-2.77.69-4.15l2.9.53c-.1.76-.23,1.53-.36,2.3s-.29,1.53-.46,2.26-.37,1.44-.56,2.09-.4,1.24-.61,1.76a6.65,6.65,0,0,0-.58-.33c-.22-.12-.45-.23-.7-.35l-.73-.33a5.82,5.82,0,0,0-.66-.29Zm5.62,4.23V10.3h3V26.72Zm3.8-11.57,2.75-.93c.28.56.56,1.17.83,1.82s.54,1.29.78,1.93.45,1.26.63,1.86a15.41,15.41,0,0,1,.44,1.65l-2.92,1q-.14-.75-.39-1.68c-.17-.62-.37-1.25-.6-1.9s-.47-1.3-.73-2a18.39,18.39,0,0,0-.79-1.75Z"/><path class="cls-3" d="M135.48,16.4a13,13,0,0,0,2.15-2.7,18.16,18.16,0,0,0,1.57-3.34l2.74.85c-.09.26-.18.53-.29.8s-.22.54-.35.82h4v2.85h-5.51a11.56,11.56,0,0,1-.72,1.1l-.74,1H145V20.6h-2.64v2.61h3.25V26h-3.25v3.62l2.85-1.6a12.09,12.09,0,0,0,.27,1.46,7.32,7.32,0,0,0,.39,1.31l-3.07,1.86c-.79.48-1.41.87-1.87,1.17a9.65,9.65,0,0,0-1,.71,3.8,3.8,0,0,0-.52.46c-.07-.19-.17-.42-.29-.68s-.26-.51-.41-.77-.31-.5-.47-.74-.3-.44-.43-.6a3,3,0,0,0,.52-.43,3.3,3.3,0,0,0,.52-.6,3.12,3.12,0,0,0,.4-.74,2.35,2.35,0,0,0,.16-.87V26.06h-3.17V23.24h3.17V20.63h-1.83V18.74l-.35.39c-.11.11-.22.22-.35.33a5.54,5.54,0,0,0-.25-.68c-.11-.28-.24-.56-.37-.85s-.28-.58-.43-.85S135.58,16.57,135.48,16.4Zm9,16.39A10.19,10.19,0,0,0,146.7,32a4.4,4.4,0,0,0,1.38-1,3.3,3.3,0,0,0,.75-1.29,9.17,9.17,0,0,0,.33-1.64H147v-8h12.29v8h-2.66v3.62a1.57,1.57,0,0,0,.07.61c0,.09.15.14.33.14h.82a.32.32,0,0,0,.26-.1.64.64,0,0,0,.14-.34,5.51,5.51,0,0,0,.08-.71,9.27,9.27,0,0,1,.06-1.19,4.27,4.27,0,0,0,.51.3l.64.28a5.3,5.3,0,0,0,.67.23l.6.17a10.2,10.2,0,0,1-.27,1.73,3.2,3.2,0,0,1-.49,1.1,1.64,1.64,0,0,1-.76.59,3.11,3.11,0,0,1-1.09.17h-1.7a5.83,5.83,0,0,1-1.38-.14,1.65,1.65,0,0,1-.84-.5,1.92,1.92,0,0,1-.43-.91,6.57,6.57,0,0,1-.12-1.4V28.13h-1.57a14,14,0,0,1-.45,2.41,5.88,5.88,0,0,1-1,2A6.29,6.29,0,0,1,149,34a11.87,11.87,0,0,1-2.81,1.15,3.36,3.36,0,0,0-.3-.6,6.68,6.68,0,0,0-.41-.67c-.14-.21-.3-.42-.46-.62a3.87,3.87,0,0,0-.52-.47Zm1.43-13.65V16.56h3.2a7.45,7.45,0,0,0-.27-.92c-.1-.31-.21-.61-.32-.89l2-.4h-3.89v-2.5h5a4.19,4.19,0,0,1-.22-.59c-.07-.19-.14-.39-.23-.58l2.82-.62c.15.28.29.57.41.86a7.45,7.45,0,0,1,.36.93h4.87v2.5h-3.86l2.27.4c-.15.33-.29.65-.44.94s-.3.58-.44.87h3.06v2.58Zm10.46,4.07V22h-6.6v1.17Zm0,3V25h-6.6v1.17Zm-5.24-11.84c.16.35.31.73.45,1.13a7.9,7.9,0,0,1,.32,1.08h2.53c.14-.36.28-.73.41-1.12s.25-.75.34-1.09Z"/><path class="cls-3" d="M162,20.34a22.16,22.16,0,0,0,1.69-2.05c.57-.79,1.1-1.6,1.59-2.44a22.4,22.4,0,0,0,1.37-2.67c.37-.92.78-1.86,1.1-2.8l3,.93c-.32.94-.69,1.88-1.1,2.8s-.86,1.83-1.32,2.74a17.34,17.34,0,0,0,3.49-3.19A19.53,19.53,0,0,0,174,10.3l3,.56c-.13.22-.25.43-.36.65a7.16,7.16,0,0,1-.39.66h4.07l.59-.16,1.78,1.33c-.28.42-.58.85-.89,1.29a14.93,14.93,0,0,1-1,1.26h4.82v6.18H178l-.2.24a2.39,2.39,0,0,1-.22.23,9.08,9.08,0,0,1,2.21,2.83c.78-.41,1.57-.86,2.36-1.35a22.9,22.9,0,0,0,2-1.34l2.08,1.94c-.41.25-.83.48-1.25.71l-1.25.65a11.54,11.54,0,0,0,1.49,3.08,7.06,7.06,0,0,0,2.26,2.19,13.18,13.18,0,0,0-1,1.11,11.36,11.36,0,0,0-.93,1.26,9.26,9.26,0,0,1-2.45-2.8,17.46,17.46,0,0,1-1.62-3.8l-.47.19a3.38,3.38,0,0,1-.44.18,11.3,11.3,0,0,1,.34,2,9.74,9.74,0,0,1,0,1.87,6.85,6.85,0,0,1-.36,1.55,3.32,3.32,0,0,1-.65,1.12,2.69,2.69,0,0,1-1.47,1,7.59,7.59,0,0,1-1.78.2h-1a8.4,8.4,0,0,0-.19-1.32,4,4,0,0,0-.53-1.37l.93.08h.72a1.69,1.69,0,0,0,.63-.09,1,1,0,0,0,.46-.46,3.28,3.28,0,0,0,.48-2,30.42,30.42,0,0,1-3.59,2.36A22.19,22.19,0,0,1,170.76,34c-.21-.31-.49-.69-.83-1.13a10.13,10.13,0,0,0-1-1.07,25.19,25.19,0,0,0,2.41-.8,25.85,25.85,0,0,0,2.4-1.08q1.15-.6,2.19-1.26a13.83,13.83,0,0,0,1.79-1.36c-.06-.16-.11-.32-.16-.47a4.17,4.17,0,0,0-.19-.44,15,15,0,0,1-1.46,1.05c-.54.35-1.08.68-1.64,1s-1.12.6-1.69.86-1.11.5-1.62.7c-.24-.35-.5-.68-.77-1a9.56,9.56,0,0,0-.88-.92,17.74,17.74,0,0,0,1.87-.61c.65-.25,1.29-.52,1.92-.82s1.22-.62,1.77-.95a14.22,14.22,0,0,0,1.44-1,4.84,4.84,0,0,0-.56-.64,15.27,15.27,0,0,1-2.2,1.23,19.38,19.38,0,0,1-2.86,1c-.19-.24-.45-.56-.77-.93a8.87,8.87,0,0,0-.91-.93,22.35,22.35,0,0,0,3.05-1.13A13.5,13.5,0,0,0,174.28,22H171V18.31l-.37.31-.37.31c-.11-.16-.24-.35-.4-.55a7.31,7.31,0,0,0-.52-.59c-.19-.18-.37-.35-.56-.51a4,4,0,0,0-.52-.4v18.2h-3V21.77c-.25.34-.5.66-.76,1s-.51.6-.75.87c-.08-.2-.18-.44-.32-.73L163,22q-.24-.46-.48-.9A4.69,4.69,0,0,0,162,20.34Zm15.54-4.45a11.52,11.52,0,0,0,1.09-1.41H174.7l-1.17,1.41Zm-1,3.91a4.75,4.75,0,0,0,.71-1.65h-3.43V19.8Zm2.87,0h3.38V18.15h-3a4,4,0,0,1-.15.79,6.64,6.64,0,0,1-.28.86Z"/><path class="cls-3" d="M82.89,57.2a10.82,10.82,0,0,0,1.65-1.11,12.87,12.87,0,0,0,1.53-1.42A16.6,16.6,0,0,0,87.41,53a16.1,16.1,0,0,0,1.08-1.77h-4.9v-1.8h5.7v-3.5h1.93v3.54H97v1.8H92A14.56,14.56,0,0,0,93.06,53a14,14,0,0,0,1.36,1.61A15,15,0,0,0,96,56a12.14,12.14,0,0,0,1.65,1.1q-.16.13-.36.33a3.6,3.6,0,0,0-.37.41l-.36.44a3.62,3.62,0,0,0-.27.41,14.15,14.15,0,0,1-2.73-2.33,20.83,20.83,0,0,1-2.3-3.07v6.89h-2v-6.8A19.52,19.52,0,0,1,87,56.44a13,13,0,0,1-2.75,2.32,2.76,2.76,0,0,0-.28-.39q-.16-.21-.36-.42l-.37-.42A3.61,3.61,0,0,0,82.89,57.2Z"/><path class="cls-3" d="M104.59,48.46v-.61H99.87V46.43h11.25v1.42h-4.76v.61h5.88V52h-1.68V49.9h-4.2v3.8h-1.77V49.85h-4.16V52h-1.6V48.46ZM110.88,54v6h-1.82v-.3h-7.13v.46H100.2V54Zm-10.28-.64V52.14h3.51v1.21Zm3.5-2.92v1.18h-3.16V50.43Zm-2.17,5.75h2.66v-.81h-2.66Zm2.66,2.15V57.5h-2.66v.83Zm1.77-2.15h2.7v-.81h-2.7Zm2.7,2.15V57.5h-2.7v.83Zm-2.21-7.9H110v1.18h-3.19Zm3.56,1.71v1.21h-3.56V52.14Z"/><path class="cls-3" d="M113.66,56.37l.88-.27c.33-.1.68-.21,1-.34V51.33H113.9V49.61h1.68V46.08h1.7v3.53H119v1.72h-1.75v3.88l1.6-.55.24,1.23h5.82v1.49h-6.09V56.31l-2.34,1-2.15.85Zm6.09-1.66V47.39h2l.24-.76c.07-.25.13-.49.17-.7l1.94.24q-.15.33-.3.63c-.1.2-.21.4-.32.59h3.33a.81.81,0,0,1,0,.22v.19a.49.49,0,0,1,0,.17c-.06.6-.1,1.1-.15,1.52s-.09.76-.14,1a5.2,5.2,0,0,1-.17.68,1.2,1.2,0,0,1-.22.4,1.13,1.13,0,0,1-.52.34A3.44,3.44,0,0,1,125,52h-1.89a2.48,2.48,0,0,0-.12-.54,2.14,2.14,0,0,0-.23-.54c.29,0,.57,0,.81,0h.84a.57.57,0,0,0,.18-.12,1.15,1.15,0,0,0,.22-.59,12.85,12.85,0,0,0,.16-1.39h-3.37v4.3h6v.68c0,.91-.06,1.7-.09,2.35s-.07,1.19-.13,1.63a8.37,8.37,0,0,1-.18,1,1.68,1.68,0,0,1-.26.56,1.5,1.5,0,0,1-.56.44,2.33,2.33,0,0,1-.69.17h-2a3.4,3.4,0,0,0-.18-.78,2.67,2.67,0,0,0-.36-.74h1.85a1,1,0,0,0,.24,0,.5.5,0,0,0,.19-.13.86.86,0,0,0,.16-.35,4.08,4.08,0,0,0,.11-.7c0-.3.06-.68.09-1.13s0-1,.07-1.61Z"/><path class="cls-3" d="M129.46,53.15a1.2,1.2,0,0,1,.08-.42,1.22,1.22,0,0,1,.58-.58,1.07,1.07,0,0,1,1.19.24,1,1,0,0,1,.23.34,1.08,1.08,0,0,1-1.42,1.42.89.89,0,0,1-.34-.23,1,1,0,0,1-.32-.77Z"/><path class="cls-3" d="M145,60.11V50.77l-3.22,6.81H140.2l-3.29-6.81v9.34h-2.12v-14h2.12l4.08,8.7,4-8.7h2.12v14Z"/><path class="cls-3" d="M150.75,60.11v-14h2.12v12.1h6.73v1.9Z"/><path class="cls-3" d="M162,60.11v-14h2.13v14Z"/><path class="cls-3" d="M184,60.11h-1.65l-4.59-14H180l3.22,10.17,3.21-10.17h2.24Z"/><path class="cls-3" d="M166.8,60.11v-14h8.94V48h-6.81v4.08h5.8V54h-5.8v4.21h6.81v1.9Z"/></g></g></g></g></svg>