<svg id="图层_1" data-name="图层 1" xmlns="http://www.w3.org/2000/svg" xmlns:xlink="http://www.w3.org/1999/xlink" viewBox="0 0 679.12 193.52"><defs><style>.cls-1{fill:url(#未命名的渐变_31);}.cls-2{fill:url(#未命名的渐变_31-2);}.cls-3{fill:#397ff7;}.cls-4{fill:url(#未命名的渐变_29);}.cls-5{fill:url(#未命名的渐变_31-3);}.cls-6{fill:url(#未命名的渐变_29-2);}.cls-7{fill:url(#未命名的渐变_20);}.cls-8{fill:url(#未命名的渐变_20-2);}.cls-9{fill:url(#未命名的渐变_29-3);}.cls-10{fill:url(#未命名的渐变_31-4);}.cls-11{fill:#fff;}</style><linearGradient id="未命名的渐变_31" x1="627.6" y1="98.94" x2="663.51" y2="98.94" gradientTransform="translate(0.98 -213.15) rotate(21.7)" gradientUnits="userSpaceOnUse"><stop offset="0" stop-color="#489df8"/><stop offset="1" stop-color="#2355f6"/></linearGradient><linearGradient id="未命名的渐变_31-2" x1="97.9" y1="48.91" x2="207.11" y2="135.5" gradientTransform="matrix(1, 0, 0, 1, 0, 0)" xlink:href="#未命名的渐变_31"/><linearGradient id="未命名的渐变_29" x1="25.85" y1="130.94" x2="261.62" y2="130.94" gradientUnits="userSpaceOnUse"><stop offset="0" stop-color="#2355f6"/><stop offset="1" stop-color="#2355f6"/></linearGradient><linearGradient id="未命名的渐变_31-3" x1="145.2" y1="126.04" x2="184.66" y2="126.04" gradientTransform="matrix(1, 0, 0, 1, 0, 0)" xlink:href="#未命名的渐变_31"/><linearGradient id="未命名的渐变_29-2" x1="165.68" y1="86" x2="168.7" y2="86" xlink:href="#未命名的渐变_29"/><linearGradient id="未命名的渐变_20" x1="165.69" y1="86.95" x2="166.33" y2="86.95" gradientUnits="userSpaceOnUse"><stop offset="0" stop-color="#62aadd"/><stop offset="0.04" stop-color="#5fa6da"/><stop offset="1" stop-color="#254a8b"/></linearGradient><linearGradient id="未命名的渐变_20-2" x1="165.51" y1="92.11" x2="165.78" y2="92.11" xlink:href="#未命名的渐变_20"/><linearGradient id="未命名的渐变_29-3" x1="111.71" y1="121.72" x2="135.62" y2="121.72" xlink:href="#未命名的渐变_29"/><linearGradient id="未命名的渐变_31-4" x1="90.24" y1="58.57" x2="199.44" y2="145.17" gradientTransform="matrix(1, 0, 0, 1, 0, 0)" xlink:href="#未命名的渐变_31"/></defs><circle class="cls-1" cx="564.18" cy="117.5" r="17.95"/><path class="cls-2" d="M270.5,130.88a53.85,53.85,0,0,1-8.88,31.49A134.08,134.08,0,0,1,112.3,122.19l.25-.21a4.07,4.07,0,0,0,3.12,1.64l18.28.91a4,4,0,0,1,1.67.44l7.15,12.17a5.23,5.23,0,0,0,2.43,2.18l1.69,2.74a4.16,4.16,0,0,0,7.42-.71l6.5-17.1a4.15,4.15,0,0,1,2.9-2.56L178,118.21a103.12,103.12,0,0,0,90.8.65A55.33,55.33,0,0,1,270.5,130.88Z"/><path class="cls-3" d="M251,90.79a54.79,54.79,0,0,1,17.78,28.07,103.12,103.12,0,0,1-90.8-.65l3.52-.86a4.15,4.15,0,0,0,1.62-7.27l-2.52-2a5.29,5.29,0,0,0-1.34-1.71l-7.34-6.17-4.47-3.77a3.81,3.81,0,0,1-.12-1.35l1.37-18.25a4.11,4.11,0,0,0-.09-1.22A42.71,42.71,0,0,1,201.93,49a10.8,10.8,0,0,1,9.38,3.16,76.26,76.26,0,0,1,17.09,27.3.11.11,0,0,0,.08.07A54.42,54.42,0,0,1,251,90.79Z"/><path class="cls-4" d="M261.62,162.37a55.6,55.6,0,0,1-46.5,25H80.39A54.67,54.67,0,0,1,80.52,78c1.59,0,3.17.07,4.73.21a.12.12,0,0,0,.11-.07c.46-1.21,1-2.42,1.49-3.61a134.08,134.08,0,0,0,174.77,87.83Z"/><path class="cls-5" d="M183.11,110.08a4.15,4.15,0,0,1-1.62,7.27l-3.52.86-14.26,3.48a4.15,4.15,0,0,0-2.9,2.56l-6.5,17.1a4.16,4.16,0,0,1-7.42.71l-1.69-2.74a5.3,5.3,0,0,0,7.05-2.87l5.83-14.35a5.34,5.34,0,0,1,3.77-3.18l1.16-.25,10.87-2.4.29-.07,2.8-.62a5.3,5.3,0,0,0,3.62-7.52Z"/><path class="cls-6" d="M168.6,75.59a4.11,4.11,0,0,1,.09,1.22l-1.37,18.25a3.81,3.81,0,0,0,.12,1.35l0,0A5.29,5.29,0,0,1,165.79,94s0,0,0,0h0c-.07-.94-.1-1.9-.1-2.85,0-.3,0-.59,0-.89h0l.64-6.55h0A42.75,42.75,0,0,1,168.6,75.59Z"/><path class="cls-3" d="M167.36,38.81c.1,1.23.16,2.49.16,3.76a42.59,42.59,0,0,1-16.94,34h0l-4.76,3a5.33,5.33,0,0,1-4.92.36l-6.2-2.71a102.24,102.24,0,0,1-12.91-39.77A76,76,0,0,1,156.65,29h.09A10.73,10.73,0,0,1,167.36,38.81Z"/><path class="cls-7" d="M166.33,83.68l-.64,6.55A42.75,42.75,0,0,1,166.33,83.68Z"/><path class="cls-8" d="M165.78,94h0a5.15,5.15,0,0,1-.24-2.18l.15-1.57c0,.3,0,.59,0,.89C165.68,92.08,165.71,93,165.78,94Z"/><path class="cls-9" d="M134.93,123.79l.69,1.18a4,4,0,0,0-1.67-.44l-18.28-.91a4.07,4.07,0,0,1-3.12-1.64,4.21,4.21,0,0,1-.71-3.51,5.18,5.18,0,0,0,3.45,1.61l15.45,1.11a5.26,5.26,0,0,1,3.58,1.77A5.54,5.54,0,0,1,134.93,123.79Z"/><path class="cls-10" d="M134.69,77.22l-8-3.49a5.3,5.3,0,0,0-7.26,6.13L120.71,85l2.44,9.88a5.25,5.25,0,0,1-.23,3.28,5.53,5.53,0,0,1-.94,1.51L111.7,111.28a5.29,5.29,0,0,0,.14,7.19,4.21,4.21,0,0,0,.71,3.51l-.25.21A133.34,133.34,0,0,1,86.85,74.54a72.34,72.34,0,0,1,3.48-6.93,76.6,76.6,0,0,1,31.45-30.16A102.24,102.24,0,0,0,134.69,77.22Z"/><path class="cls-3" d="M217.34,19.38s-.35,12-11.51,12c0,0,11.53.49,11.56,11.32,0,0,.58-11.33,11.08-11.33C228.47,31.36,217.36,31.77,217.34,19.38Z"/><path class="cls-3" d="M240.74,12.15s4.21,8.5-3.59,12.65c0,0,8.24-3.94,12.28,3.61,0,0-3.8-8.13,3.54-12C253,16.38,245.36,20.79,240.74,12.15Z"/><path class="cls-3" d="M241.43,35.41s11.64,7.44,5,18.48c0,0,7.31-11.12,18-4.73,0,0-10.86-7.28-4.64-17.67C259.87,31.49,253.7,42.72,241.43,35.41Z"/><path class="cls-3" d="M184.13,16.17s5.72,8.78-2.3,14.35c0,0,8.54-5.4,13.95,2.37,0,0-5.23-8.43,2.32-13.66C198.1,19.23,190.32,25.06,184.13,16.17Z"/><path class="cls-11" d="M645.61,107.4l-5.57-1a3.31,3.31,0,0,1-2.93-3.84l4.79-21.85-41.47-.18c-11.35,0-20.61-8.18-20.61-18.23V58a3.52,3.52,0,0,1,3.71-3.28h5.67A3.52,3.52,0,0,1,592.91,58v4.35c0,3.67,3.39,6.66,7.55,6.66l52.83.23a3.42,3.42,0,0,1,3.62,3.91L650,104.81A3.72,3.72,0,0,1,645.61,107.4Z"/><path class="cls-11" d="M646.92,165.53l-30.7-54.63,8.41-3.68a4,4,0,0,1,5,1.48l30.27,54c1.23,2.19-.6,4.76-3.37,4.73l-6.29-.06A3.79,3.79,0,0,1,646.92,165.53Z"/><path class="cls-11" d="M442.71,103.94H493.5a24.41,24.41,0,1,0,.14-48.81H443.76a24.93,24.93,0,0,0-24.93,24.93h0A23.88,23.88,0,0,0,442.71,103.94Zm.52-36.74h50.34a12.31,12.31,0,0,1,10.75,6.3H451.75a3.11,3.11,0,0,0-3.11,3.11v5.85a3.11,3.11,0,0,0,3.11,3.11h52.57a12.32,12.32,0,0,1-10.75,6.29H443.23a12.33,12.33,0,0,1,0-24.66Z"/><path class="cls-11" d="M406.45,122.32a75.24,75.24,0,0,1-25.94-19.23l-3.07-3.57v-.07h-.05l-1.67-1.94h24.71A3.38,3.38,0,0,0,404,94.3V89.39a3.38,3.38,0,0,0-3.53-3.21H346.09a129.43,129.43,0,0,0,8.15-14.65A346.76,346.76,0,0,0,389.9,67a3.21,3.21,0,0,0,2.7-3.9l-1.27-4.79a3.55,3.55,0,0,0-4.12-2.39c-9.86,1.82-40.93,6.76-82.24,5.56a3.41,3.41,0,0,0-3.65,3.08l-.22,4.9a3.35,3.35,0,0,0,3.41,3.34q7,.21,13.6.2c7.82,0,15.17-.2,22-.52a116.67,116.67,0,0,1-8.74,13.74h-38.6a3.38,3.38,0,0,0-3.53,3.21V94.3a3.38,3.38,0,0,0,3.53,3.21h29.17a132.63,132.63,0,0,1-27.66,22.35l-4,2.45a3,3,0,0,0-1,4.46l3,4.08a3.74,3.74,0,0,0,4.89.88l4-2.45a148.69,148.69,0,0,0,18.37-13.21v11.58a100.18,100.18,0,0,1-6.17,34.59,3.12,3.12,0,0,0,2.14,4l5.06,1.69a3.64,3.64,0,0,0,4.57-2A110.4,110.4,0,0,0,332,127.65V104.21q3-3.27,5.82-6.7h22.09l5.08,5.92V166a3.38,3.38,0,0,0,3.53,3.21h5.39a3.38,3.38,0,0,0,3.52-3.21V117a89.65,89.65,0,0,0,23.64,15.53,3.68,3.68,0,0,0,4.81-1.57l2.2-4.48A3.09,3.09,0,0,0,406.45,122.32Z"/><path class="cls-11" d="M620.78,86.65H615a3.65,3.65,0,0,0-3.61,2.52L594,153.41a2.9,2.9,0,0,1-2.08,2,3.4,3.4,0,0,1-3-.5l-20.5-15.1,4.86-3c6.63-4.13,10.58-10.86,10.58-18V88.35c0-12.45-11.73-22.52-25.94-22-13.52.45-24,10.63-24,22.58v30.27a21.36,21.36,0,0,0,10.06,17.69l3,2.2-23.65,14.72a14.71,14.71,0,0,1-7.74,2.17H474.89v-8.33h41.34a3.52,3.52,0,0,0,3.71-3.28v-5a3.51,3.51,0,0,0-3.71-3.27H474.89v-7.93h40.16a3.11,3.11,0,0,0,3.11-3.11v-5.85a3.11,3.11,0,0,0-3.11-3.11H474.89v-7.17a3.52,3.52,0,0,0-3.71-3.28h-5.67a3.52,3.52,0,0,0-3.71,3.28v7.17h-31V110a3.11,3.11,0,0,0-3.11-3.11h-5.85a3.11,3.11,0,0,0-3.11,3.11v15a3.11,3.11,0,0,0,3.11,3.11H461.8v7.93H420.91a3.52,3.52,0,0,0-3.72,3.27v5a3.52,3.52,0,0,0,3.72,3.28H461.8v8.33H420.74a3.52,3.52,0,0,0-3.71,3.28v5a3.52,3.52,0,0,0,3.71,3.28h94.79a28.83,28.83,0,0,0,15.28-4.28l26.52-16.5,22.8,16.79a18.44,18.44,0,0,0,15.07,3.12c5.82-1.41,10.18-5.41,11.56-10.54l17.63-65.41C625,88.62,623.18,86.65,620.78,86.65Zm-55.07,40.7-7.72,4.8-5.81-4.29-.34-.22a10.2,10.2,0,0,1-4.87-8.48V88.35c0-5.79,5.33-10.5,11.89-10.5s11.89,4.71,11.89,10.5v30.42A10.21,10.21,0,0,1,565.71,127.35Z"/></svg>