<svg xmlns="http://www.w3.org/2000/svg" viewBox="0 0 794.65 239.05"><defs><style>.cls-1{fill:#0059ff;}.cls-2{fill:#0057ff;}.cls-3{fill:#f19600;}</style></defs><g id="图层_2" data-name="图层 2"><g id="图层_1-2" data-name="图层 1"><path class="cls-1" d="M308.31,140.57l7.62-26.16a5.62,5.62,0,0,1,5.4-4h14.92a5.64,5.64,0,0,1,5.41,7.2L334,143.72a5.65,5.65,0,0,1-5.41,4.06H313.71A5.63,5.63,0,0,1,308.31,140.57Z"/><path class="cls-1" d="M431.47,50.46V43.38a5.63,5.63,0,0,0-5.63-5.63H380.6V35.39A5.63,5.63,0,0,0,375,29.76H359.24a5.63,5.63,0,0,0-5.62,5.63v2.36H308.55a5.63,5.63,0,0,0-5.63,5.63v7.08a5.63,5.63,0,0,0,5.63,5.62h45.07V61.7H319.36q-13.5,0-13.5,10.06v29.42a5.63,5.63,0,0,0,5.63,5.63h42.13v41h27v-41H415q13.5,0,13.5-9.91V67.33a5.63,5.63,0,0,0-5.63-5.63H380.6V56.08h45.24A5.63,5.63,0,0,0,431.47,50.46ZM353.62,89.65H332.51V78.86h21.11Zm48.09-10.79V89.65H380.6V78.86Z"/><path class="cls-1" d="M400.19,143.72l-7.62-26.16a5.62,5.62,0,0,1,5.4-7.2h14.92a5.63,5.63,0,0,1,5.4,4l7.62,26.16a5.63,5.63,0,0,1-5.4,7.21H405.59A5.63,5.63,0,0,1,400.19,143.72Z"/><path class="cls-1" d="M454,105.13,466.76,104V68.51H455.61A5.63,5.63,0,0,1,450,62.88V55.8a5.63,5.63,0,0,1,5.63-5.63h11.15V35.39a5.63,5.63,0,0,1,5.63-5.63h15.39a5.63,5.63,0,0,1,5.63,5.63V50.17h11.67a5.63,5.63,0,0,1,5.63,5.63v7.08a5.63,5.63,0,0,1-5.63,5.63H493.41v33.27l9.07-.82a5.64,5.64,0,0,1,6.12,5.12l.59,6.83a5.64,5.64,0,0,1-5.1,6.09l-10.68,1V163.3c0,2.76-1.45,5-4.33,6.81a17.66,17.66,0,0,1-9.17,2.36H460.8a5.63,5.63,0,0,1-5.63-5.63v-7.08a5.63,5.63,0,0,1,5.63-5.63h6V122.19l-11.16,1a5.62,5.62,0,0,1-6.1-5.12l-.59-6.83A5.63,5.63,0,0,1,454,105.13ZM521.18,32H610.1a5.63,5.63,0,0,1,5.62,5.63v7.08a5.63,5.63,0,0,1-5.62,5.63H561.05L550.33,81.67h49.46A11.44,11.44,0,0,1,611.23,93.1v69.46q0,4.59-5,7.4a19.33,19.33,0,0,1-9.86,2.51h-68.6a5.63,5.63,0,0,1-5.62-5.63V121.3h-3.92a5.62,5.62,0,0,1-5.33-7.43l21.53-63.55H521.18a5.63,5.63,0,0,1-5.63-5.63V37.61A5.63,5.63,0,0,1,521.18,32Zm27.59,74.84v40.66a6.81,6.81,0,0,0,6.81,6.8h22a6.81,6.81,0,0,0,6.81-6.8V106.82A6.81,6.81,0,0,0,577.6,100h-22A6.81,6.81,0,0,0,548.77,106.82Z"/><path class="cls-1" d="M638.65,84.63H788.81a5.63,5.63,0,0,1,5.63,5.63v7.22a5.63,5.63,0,0,1-5.63,5.63H692.54L671.09,152.8H756.9l-11.44-29.33a5.63,5.63,0,0,1,4.06-7.55l14.36-3.09a5.65,5.65,0,0,1,6.4,3.37l17.41,42.52q2.25,5.33-2.07,9c-2.66,2.27-6.17,3.4-10.56,3.4h-122a15.75,15.75,0,0,1-10-3.4q-4.68-3.56-2.77-8.28l24.39-56.35h-26A5.63,5.63,0,0,1,633,97.48V90.26A5.63,5.63,0,0,1,638.65,84.63Zm9.52-53.39H779.3a5.63,5.63,0,0,1,5.63,5.63V43.8a5.63,5.63,0,0,1-5.63,5.63H648.17a5.63,5.63,0,0,1-5.63-5.63V36.87A5.63,5.63,0,0,1,648.17,31.24Z"/><path class="cls-2" d="M239.05,119.53c0,2.46-.08,4.9-.22,7.32a118.35,118.35,0,0,0-104.91-101,96.14,96.14,0,0,0-14.39-1.09,94.81,94.81,0,1,0,0,189.61c3.18,0,7.22-.65,10.33-1a91.18,91.18,0,0,1-21.71,3.13c-49.57,0-90.58-43.59-96.32-99.63a128.64,128.64,0,0,1-.71-13.54c0-.38,0-.74,0-1.12,0-.19,0-.38,0-.57A101.41,101.41,0,0,1,70.69,10.44,119.53,119.53,0,0,1,239.05,119.53Z"/><path class="cls-2" d="M219.89,86.83a113.81,113.81,0,0,0-41.32-41.42,94.53,94.53,0,0,1,35.76,74.12,94.29,94.29,0,0,1-19.79,57.9h0C163.23,219.55,115,221.17,115,221.17h0q-3.4.26-6.87.26c-47.66,0-87.79-38.08-98.9-89.34a132.37,132.37,0,0,1-2.44-15.6c-.41-4.32-.63-8.72-.63-13.17a135.31,135.31,0,0,1,3.59-31.1A119.51,119.51,0,0,0,223.89,177.75C244.91,136.61,221.36,89.68,219.89,86.83Z"/><circle class="cls-3" cx="283.39" cy="44.35" r="14.59"/><path class="cls-1" d="M309.37,152.66a13.54,13.54,0,0,1-13.54-13.54V70.88a5.63,5.63,0,0,0-5.63-5.63H274.64A5.63,5.63,0,0,0,269,70.88v74A26.12,26.12,0,0,0,295.14,171H427.57a5.63,5.63,0,0,0,5.63-5.63v-7.07a5.63,5.63,0,0,0-5.63-5.63Z"/><path class="cls-2" d="M147.18,124.68a104.35,104.35,0,0,1-20.1-10.41c-26.39-18-21-39.59,3.58-48.09a75.79,75.79,0,0,1,25.12-3.72c2.55,0,2.95-4,.47-4.58-22-5.39-44.71-2.06-60.78,8.3C80,76.18,70.74,92.7,74.25,114.27c.13.79.27,1.59.44,2.41,3.06,17.41,21.62,30.54,53.11,40.09,4.5,1.37,6.73,6.91,4.47,11.34-6.51,12.77-31.68,8.62-28.7-8.11a5.73,5.73,0,0,0-3.58-6.55,51.4,51.4,0,0,1-10.19-4.71A66.65,66.65,0,0,1,79.08,140,60.43,60.43,0,0,1,72,130.78l-1.18-2.17a3.91,3.91,0,0,0-6.94.16c-5.26,10.68-11.3,30.21-.83,52,.11.32.23.63.34.94a58.3,58.3,0,0,0,32,29,34,34,0,0,1-10-2.8c23.42,13.29,56.46,8.72,76.06-14.38C186.67,158.9,175.42,138.47,147.18,124.68Z"/><path class="cls-3" d="M168.67,72H135.86a18,18,0,0,0-13.9,6.3,15.66,15.66,0,0,0-3.62,13.31,18.24,18.24,0,0,0,18.09,14.7h32.24a17.16,17.16,0,0,0,17.16-17.16h0A17.15,17.15,0,0,0,168.67,72Z"/><path class="cls-2" d="M79.72,72H25.54l-6.21,34.31H66.58C66,100.89,65.71,84.63,79.72,72Z"/><path class="cls-1" d="M278.65,190,281,200.47a8.11,8.11,0,0,1,.24,1.15,9.72,9.72,0,0,0,.24,1.19l.35,1.72c.24,1.08.5,2.5.77,4.27h.18a28.13,28.13,0,0,1,1-4.27c.4-1.56.75-2.9,1.07-4L288,190h7.12l2.9,10.16c.56,1.94.95,3.38,1.19,4.32s.55,2.38.95,4.32h.12c.39-2.7,1-5.6,1.72-8.69L304.4,190h8.84l-8.9,25.47h-8.42l-2.73-8.91-.54-1.87a6.69,6.69,0,0,1-.29-1.09l-.18-.79a1.74,1.74,0,0,0-.12-.49,1.77,1.77,0,0,1-.12-.55,1.51,1.51,0,0,0-.12-.47,1.41,1.41,0,0,1-.12-.46c-.16-1-.29-1.72-.41-2.24h-.12c0,.14-.09.36-.15.67a4.2,4.2,0,0,0-.09.68c-.08.42-.2,1-.35,1.72s-.24,1.13-.24,1.2c-.2.83-.54,2-1,3.64l-2.91,9h-8.48L269.45,190Z"/><path class="cls-1" d="M323.69,190l2.37,10.47a8.11,8.11,0,0,1,.24,1.15,10.09,10.09,0,0,0,.23,1.19l.36,1.72c.24,1.08.49,2.5.77,4.27h.18a27,27,0,0,1,1-4.27c.39-1.56.75-2.9,1.07-4L333,190h7.12L343,200.16c.55,1.94,1,3.38,1.19,4.32s.55,2.38.95,4.32h.11c.4-2.7,1-5.6,1.73-8.69L349.44,190h8.84l-8.9,25.47H341l-2.73-8.91-.53-1.87a8.36,8.36,0,0,1-.3-1.09l-.17-.79a2.19,2.19,0,0,0-.12-.49,1.77,1.77,0,0,1-.12-.55,1.51,1.51,0,0,0-.12-.47,1.41,1.41,0,0,1-.12-.46c-.16-1-.3-1.72-.42-2.24h-.11c0,.14-.09.36-.15.67a4.2,4.2,0,0,0-.09.68c-.08.42-.2,1-.36,1.72s-.23,1.13-.23,1.2c-.2.83-.54,2-1,3.64l-2.91,9H323L314.49,190Z"/><path class="cls-1" d="M368.72,190l2.38,10.47a7.11,7.11,0,0,1,.23,1.15,9.72,9.72,0,0,0,.24,1.19l.36,1.72c.24,1.08.49,2.5.77,4.27h.18a25.92,25.92,0,0,1,1-4.27c.39-1.56.75-2.9,1.06-4L378,190h7.12l2.91,10.16c.55,1.94.95,3.38,1.19,4.32s.55,2.38.94,4.32h.12q.6-4.05,1.72-8.69L394.48,190h8.84l-8.9,25.47H386l-2.73-8.91-.53-1.87a8.36,8.36,0,0,1-.3-1.09l-.18-.79a1.74,1.74,0,0,0-.12-.49,1.7,1.7,0,0,1-.11-.55,1.51,1.51,0,0,0-.12-.47,1.41,1.41,0,0,1-.12-.46c-.16-1-.3-1.72-.42-2.24h-.12c0,.14-.08.36-.14.67a4.2,4.2,0,0,0-.09.68c-.08.42-.2,1-.36,1.72s-.24,1.13-.24,1.2c-.19.83-.53,2-1,3.64l-2.9,9H368L359.53,190Z"/><path class="cls-1" d="M412.1,216a5.56,5.56,0,0,1-2.08-.36,4.61,4.61,0,0,1-1.66-1,5.14,5.14,0,0,1-1.13-1.51,5.58,5.58,0,0,1-.35-1.93,5.41,5.41,0,0,1,.35-2,5.28,5.28,0,0,1,1.13-1.51,5.94,5.94,0,0,1,1.72-1,5.74,5.74,0,0,1,2.14-.36,5.65,5.65,0,0,1,2.13.36,4.42,4.42,0,0,1,1.67,1,4.67,4.67,0,0,1,1.06,1.51,4.15,4.15,0,0,1,.42,2,4.43,4.43,0,0,1-.42,1.93,3.91,3.91,0,0,1-1.06,1.51,4.58,4.58,0,0,1-1.67,1A6,6,0,0,1,412.1,216Z"/><path class="cls-1" d="M422.9,208.6l1.54.67a19.45,19.45,0,0,0,2,.58,16,16,0,0,0,2.14.46,14.67,14.67,0,0,0,2.13.16,5.94,5.94,0,0,0,3-.57,1.74,1.74,0,0,0,.89-1.51,1.82,1.82,0,0,0-.18-.89,1.6,1.6,0,0,0-.71-.73,5.15,5.15,0,0,0-1.25-.62,14.14,14.14,0,0,0-1.78-.63.21.21,0,0,0-.12-.05.51.51,0,0,0-.17-.05,19.79,19.79,0,0,1-3.86-1.51,11.87,11.87,0,0,1-2.61-1.88,6.54,6.54,0,0,1-1.43-2,6.39,6.39,0,0,1-.41-2.24,7,7,0,0,1,.83-3.33,7.78,7.78,0,0,1,2.37-2.66A10.92,10.92,0,0,1,429,190a18.5,18.5,0,0,1,4.87-.62,21,21,0,0,1,4.69.47,13.72,13.72,0,0,1,3.44,1l-1.55,5.47a8.67,8.67,0,0,0-1.18-.47,5,5,0,0,0-1.55-.47,9.3,9.3,0,0,0-1.72-.37,12.51,12.51,0,0,0-1.84-.15,4.91,4.91,0,0,0-2.55.52,1.73,1.73,0,0,0-.89,1.51,1.47,1.47,0,0,0,.24.83,1.73,1.73,0,0,0,.71.68l.06.05a15,15,0,0,0,1.43.68,4.1,4.1,0,0,1,.71.26,15.34,15.34,0,0,0,1.54.47,22.21,22.21,0,0,1,3.56,1.4,8.54,8.54,0,0,1,2.37,1.78,6.06,6.06,0,0,1,1.43,2.13,7.28,7.28,0,0,1,.47,2.55,7.17,7.17,0,0,1-.77,3.34,7.1,7.1,0,0,1-2.37,2.6,11.41,11.41,0,0,1-3.92,1.72,20.94,20.94,0,0,1-5.46.62,24,24,0,0,1-5.28-.52,21.52,21.52,0,0,1-4.09-1.3Z"/><path class="cls-1" d="M475.39,207.29c0,2.12,0,3.63.06,4.54,0,1.25.1,2.46.18,3.64H467.8l-.42-3.59h-.18a15.12,15.12,0,0,1-1.12,1.3,10.45,10.45,0,0,1-1.9,1.35,9.49,9.49,0,0,1-2.61,1.1,14.06,14.06,0,0,1-3.45.41,12.93,12.93,0,0,1-4.09-.62,8.36,8.36,0,0,1-3.26-2,8.54,8.54,0,0,1-2.08-3.44,14.19,14.19,0,0,1-.77-5.05V190h9v13.7a7.65,7.65,0,0,0,1.07,4.38,4,4,0,0,0,3.5,1.56,4.94,4.94,0,0,0,1.66-.26,3.58,3.58,0,0,0,1.3-.63,2.76,2.76,0,0,0,.95-.94,8.57,8.57,0,0,0,.6-.93,3.79,3.79,0,0,0,.35-1.72V190h9Z"/><path class="cls-1" d="M493.67,187v7.43l6.27-.41.2,6-6.47.64v6.62c0,1.21-.08,2.48.43,3.1s1.83.52,3.13.52c.72,0,1.21,0,1.49,0,.12,0,.37,0,.77-.08a1.76,1.76,0,0,0,.43-.07l0,4.88a14.32,14.32,0,0,1-2.37.38,29.73,29.73,0,0,1-3.44.16,14.45,14.45,0,0,1-4-.5,4.46,4.46,0,0,1-2.35-1.22,3.72,3.72,0,0,1-1.49-2.3,17.7,17.7,0,0,1-.38-3.73l-.18-7.69-5.92.72-.2-6.79h6.25v-6Z"/><path class="cls-1" d="M533.34,207.29c0,2.12,0,3.63.06,4.54,0,1.25.09,2.46.17,3.64h-7.83l-.41-3.59h-.18a15.35,15.35,0,0,1-1.13,1.3,10.11,10.11,0,0,1-1.9,1.35,9.24,9.24,0,0,1-2.61,1.1,14,14,0,0,1-3.44.41,12.89,12.89,0,0,1-4.09-.62,8.47,8.47,0,0,1-3.27-2,8.77,8.77,0,0,1-2.08-3.44,14.42,14.42,0,0,1-.77-5.05V190h9v13.7a7.73,7.73,0,0,0,1.07,4.38,4,4,0,0,0,3.5,1.56,4.9,4.9,0,0,0,1.66-.26,3.63,3.63,0,0,0,1.31-.63,2.85,2.85,0,0,0,1-.94,8.8,8.8,0,0,0,.59-.93,3.65,3.65,0,0,0,.36-1.72V190h9Z"/><path class="cls-1" d="M554.72,190.07a17.9,17.9,0,0,1,6,.94,14.51,14.51,0,0,1,4.69,2.71,11.73,11.73,0,0,1,3,4.11,14.16,14.16,0,0,1-.24,11.35,12.77,12.77,0,0,1-3.44,4.27,14.56,14.56,0,0,1-4.86,2.5,20.28,20.28,0,0,1-5.7.79,19.8,19.8,0,0,1-5.93-.89,13.26,13.26,0,0,1-4.75-2.6,11.56,11.56,0,0,1-3.21-4.12,12.62,12.62,0,0,1-1.12-5.52A13.3,13.3,0,0,1,540.3,198a12.77,12.77,0,0,1,3.15-4.27,14.85,14.85,0,0,1,4.92-2.71A20.84,20.84,0,0,1,554.72,190.07Zm-.29,5.68a5.21,5.21,0,0,0-2.73.67,5,5,0,0,0-1.84,1.77,7,7,0,0,0-1.07,2.45,13.69,13.69,0,0,0-.3,2.76,9.79,9.79,0,0,0,.42,3,5.86,5.86,0,0,0,1.13,2.45,6.34,6.34,0,0,0,1.84,1.62,5.81,5.81,0,0,0,2.55.57,5,5,0,0,0,4.21-2.14,6.48,6.48,0,0,0,1.13-2.44,10.61,10.61,0,0,0,.41-3.13,14.4,14.4,0,0,0-.29-2.76,8.59,8.59,0,0,0-1.07-2.45,5.41,5.41,0,0,0-1.78-1.72A4.6,4.6,0,0,0,554.43,195.75Z"/><path class="cls-1" d="M580.68,190l4.33,9.1a4.35,4.35,0,0,0,.3.64c0,.13.12.33.24.61a2.92,2.92,0,0,0,.23.49,8.4,8.4,0,0,0,.36.9,4.77,4.77,0,0,1,.3.79h.23a1.06,1.06,0,0,1,.09-.3c.06-.15.11-.26.15-.34q.24-.67.36-1l.14-.34a1,1,0,0,0,.09-.31,9.54,9.54,0,0,1,.42-1.13l3.62-9.06h9.61l-6.76,12.16q-1.85,3.14-2.91,4.72a33.62,33.62,0,0,1-2.55,3.39,17.26,17.26,0,0,1-2.38,2.38,18,18,0,0,1-2.37,1.62c-.87.46-1.64.82-2.31,1.1a23.64,23.64,0,0,1-2.32.75c-.79.2-1.52.36-2.19.46s-1.25.17-1.84.22l-2-4.83a14.16,14.16,0,0,0,1.9-.38c1.1-.32,1.78-.52,2-.6s.6-.21,1.07-.41a2,2,0,0,1,.3-.17l.24-.14a4.18,4.18,0,0,0,.47-.26,2.08,2.08,0,0,1,.36-.27l.29-.2.24-.17a5.11,5.11,0,0,0,.77-.68,1.48,1.48,0,0,0,.48-.83.88.88,0,0,0-.06-.38v-.08a1.28,1.28,0,0,0-.3-.49L570.65,190Z"/><path class="cls-1" d="M632.3,207.29c0,2.12,0,3.63.06,4.54,0,1.25.1,2.46.18,3.64h-7.83l-.42-3.59h-.17c-.32.41-.7.85-1.13,1.3a10.45,10.45,0,0,1-1.9,1.35,9.24,9.24,0,0,1-2.61,1.1A14,14,0,0,1,615,216a13,13,0,0,1-4.1-.62,8.5,8.5,0,0,1-3.26-2A8.77,8.77,0,0,1,605.6,210a14.42,14.42,0,0,1-.77-5.05V190h9v13.7a7.73,7.73,0,0,0,1.07,4.38,4,4,0,0,0,3.5,1.56,4.9,4.9,0,0,0,1.66-.26,3.71,3.71,0,0,0,1.31-.63,2.85,2.85,0,0,0,1-.94,10.82,10.82,0,0,0,.59-.93,3.66,3.66,0,0,0,.35-1.72V190h9Z"/><path class="cls-1" d="M639.54,198.13q0-3.07-.06-4.38c-.08-1.35-.14-2.6-.17-3.75h7.83l.41,3.54h.18a7.69,7.69,0,0,1,1.25-1.35,10.88,10.88,0,0,1,1.84-1.35,16.35,16.35,0,0,1,2.61-1,12.79,12.79,0,0,1,3.26-.42,11.74,11.74,0,0,1,4.16.68,8.41,8.41,0,0,1,3.26,2,8.77,8.77,0,0,1,2.19,3.38,13.72,13.72,0,0,1,.78,4.9v15.05h-9V201.36a8.71,8.71,0,0,0-.24-2.24,4.82,4.82,0,0,0-.83-1.72,3.63,3.63,0,0,0-1.43-1.15,4.55,4.55,0,0,0-2.07-.41,4.94,4.94,0,0,0-1.66.26,3.81,3.81,0,0,0-1.37.67,4,4,0,0,0-1,.94,6,6,0,0,0-.65,1.09,6.21,6.21,0,0,0-.24.94,6.29,6.29,0,0,0-.06,1v14.69h-9Z"/><path class="cls-1" d="M678.88,216a5.47,5.47,0,0,1-2.07-.36,4.45,4.45,0,0,1-1.66-1,4.82,4.82,0,0,1-1.13-1.51,5.37,5.37,0,0,1-.36-1.93,5.21,5.21,0,0,1,.36-2,4.94,4.94,0,0,1,1.13-1.51,6.29,6.29,0,0,1,6-1,4.38,4.38,0,0,1,1.66,1,4.68,4.68,0,0,1,1.07,1.51,4.28,4.28,0,0,1,.41,2,4.57,4.57,0,0,1-.41,1.93,3.94,3.94,0,0,1-1.07,1.51,4.61,4.61,0,0,1-1.66,1A6.08,6.08,0,0,1,678.88,216Z"/><path class="cls-1" d="M711.52,214.79a17.74,17.74,0,0,1-3.32.84,27.44,27.44,0,0,1-4.75.36,19.77,19.77,0,0,1-6.35-.94,15,15,0,0,1-4.86-2.6,12.91,12.91,0,0,1-3.09-4.06,13.21,13.21,0,0,1-1.07-5.42,13.05,13.05,0,0,1,1.07-5.26,12.24,12.24,0,0,1,3.2-4.32,14.67,14.67,0,0,1,5.17-2.87,21.42,21.42,0,0,1,7.18-1.09,30.53,30.53,0,0,1,3.62.26,16.29,16.29,0,0,1,3.26.73l-1.42,5.88a16.27,16.27,0,0,0-2-.52,16.53,16.53,0,0,0-3-.26,9.09,9.09,0,0,0-3.2.52,6.39,6.39,0,0,0-2.49,1.51,6,6,0,0,0-1.55,2.24,7.64,7.64,0,0,0-.53,2.87,7.21,7.21,0,0,0,.59,3.07,7,7,0,0,0,1.72,2.24,8.55,8.55,0,0,0,2.55,1.36,10.28,10.28,0,0,0,3.09.46,18.25,18.25,0,0,0,2.91-.2,14.81,14.81,0,0,0,2.25-.63Z"/><path class="cls-1" d="M730.39,189.38a17.89,17.89,0,0,1,6,.94,14.39,14.39,0,0,1,4.69,2.7,11.89,11.89,0,0,1,3,4.12,13.14,13.14,0,0,1-3.68,15.62,14.89,14.89,0,0,1-4.87,2.5,20.63,20.63,0,0,1-5.69.78,19.91,19.91,0,0,1-5.94-.88,13.37,13.37,0,0,1-4.75-2.61,11.42,11.42,0,0,1-3.2-4.11,12.62,12.62,0,0,1-1.13-5.52,13.38,13.38,0,0,1,1.13-5.63,12.73,12.73,0,0,1,3.15-4.27,14.73,14.73,0,0,1,4.92-2.7A20.79,20.79,0,0,1,730.39,189.38Zm-.3,5.67a5.24,5.24,0,0,0-2.73.68,5.11,5.11,0,0,0-1.84,1.77,7,7,0,0,0-1.06,2.45,13.69,13.69,0,0,0-.3,2.76,10.17,10.17,0,0,0,.41,3,6.05,6.05,0,0,0,1.13,2.45,6.42,6.42,0,0,0,1.84,1.61,5.68,5.68,0,0,0,2.55.58,5.06,5.06,0,0,0,4.22-2.14,6.3,6.3,0,0,0,1.12-2.45,10.2,10.2,0,0,0,.42-3.12,13.69,13.69,0,0,0-.3-2.76,8.32,8.32,0,0,0-1.07-2.45,5.22,5.22,0,0,0-1.78-1.72A4.6,4.6,0,0,0,730.09,195.05Z"/><path class="cls-1" d="M750.74,198.13q0-3.07-.06-4.38c-.08-1.35-.14-2.6-.17-3.75h7.65l.36,3.44h.17a8.1,8.1,0,0,1,1.19-1.35,11.45,11.45,0,0,1,1.84-1.31,11.31,11.31,0,0,1,2.49-1,12.85,12.85,0,0,1,3.27-.41,9.64,9.64,0,0,1,4.92,1.2,6.88,6.88,0,0,1,3,3.17h.12a12.75,12.75,0,0,1,3.79-3.12,21.08,21.08,0,0,1,2.56-.94,12.69,12.69,0,0,1,3-.31,9.92,9.92,0,0,1,3.86.67,7.51,7.51,0,0,1,3.14,2,8.49,8.49,0,0,1,2,3.43,13.61,13.61,0,0,1,.77,4.95v15h-8.78V201.62a7.39,7.39,0,0,0-1.07-4.33,3.68,3.68,0,0,0-3.2-1.51,4.81,4.81,0,0,0-1.48.21,4.43,4.43,0,0,0-1.19.63,3.24,3.24,0,0,0-.89.88,4.19,4.19,0,0,0-.65,1,4.68,4.68,0,0,0-.24,1,6.35,6.35,0,0,0-.06,1.05v14.89h-8.78V201.15a8.5,8.5,0,0,0-.24-2.19,4.44,4.44,0,0,0-.77-1.67A3.43,3.43,0,0,0,766,196.2a4.12,4.12,0,0,0-1.9-.42,4.57,4.57,0,0,0-1.54.26,7.08,7.08,0,0,0-1.25.68,5.3,5.3,0,0,0-.88.89,7.32,7.32,0,0,0-.54,1,3.07,3.07,0,0,0-.3,1,6.43,6.43,0,0,0-.05,1v14.84h-8.79Z"/></g></g></svg>