<svg t="1750550178180" class="icon" viewBox="0 0 1024 1024" version="1.1" xmlns="http://www.w3.org/2000/svg" p-id="4745" width="200" height="200"><path d="M795.306667 877.226667h-580.266667l389.12-392.533334c54.613333-54.613333 105.813333-75.093333 112.64-78.506666l10.24-3.413334c88.746667-10.24 160.426667 6.826667 211.626667 54.613334 78.506667 71.68 78.506667 184.32 78.506666 191.146666 0 160.426667-143.36 218.453333-221.866666 228.693334z m-337.92-98.986667h334.506666c20.48-3.413333 129.706667-23.893333 133.12-133.12 0 0 0-75.093333-44.373333-116.053333-27.306667-23.893333-71.68-34.133333-126.293333-27.306667-10.24 6.826667-40.96 20.48-71.68 54.613333l-225.28 221.866667zM303.786667 413.013333L204.8 406.186667c3.413333-81.92 71.68-235.52 283.306667-259.413334 10.24 0 197.973333-17.066667 303.786666 187.733334l-88.746666 44.373333c-75.093333-143.36-201.386667-136.533333-204.8-133.12-177.493333 20.48-194.56 153.6-194.56 167.253333z" p-id="4746"></path><path d="M225.28 877.226667C92.16 877.226667 27.306667 771.413333 13.653333 716.8c-47.786667-160.426667 92.16-273.066667 95.573334-276.48 150.186667-109.226667 296.96 13.653333 354.986666 92.16l-81.92 58.026667 40.96-30.72-40.96 30.72c0-3.413333-109.226667-146.773333-211.626666-71.68-3.413333 3.413333-88.746667 71.68-61.44 167.253333 3.413333 10.24 27.306667 88.746667 116.053333 88.746667v102.4z" p-id="4747"></path><path d="M225.28 778.24h143.36v98.986667H225.28z" p-id="4748"></path></svg>