<?xml version="1.0" encoding="UTF-8"?><svg id="_图层_1" xmlns="http://www.w3.org/2000/svg" viewBox="0 0 198.425 198.425"><defs><style>.cls-1{fill:#0085d0;}.cls-2{fill:#8fc31f;}</style></defs><path class="cls-1" d="m172.518,84.013c-8.748-9.716-20.756-15.443-33.812-16.128-15.824-.824-31.025,4.553-42.793,15.149l-24.441,21.933c-4.742,4.256-5.017,11.593-.608,16.192l.744.776,32.811-29.437c9.25-8.329,21.189-12.558,33.62-11.905,9.661.506,18.547,4.745,25.021,11.934s9.76,16.47,9.253,26.131c-1.009,19.246-17.14,34.322-36.726,34.322-6.043,0-11.937-1.46-17.196-4.189-1.356-.703-3.001-.517-4.137.503l-7.843,7.042c8.439,6.067,18.646,9.37,29.176,9.37,26.357,0,48.071-20.373,49.434-46.381.684-13.056-3.757-25.597-12.505-35.312Z"/><path class="cls-2" d="m126.601,111.581l-7.507-7.832c-4.035-4.21-10.683-4.459-15.023-.563l-19.26,17.294c-2.062,1.852-5.221,1.733-7.139-.267l-8.681-9.054,2.619,10.777,7.513,7.836c4.036,4.209,10.683,4.458,15.021.562l19.253-17.288c2.062-1.851,5.22-1.734,7.138.266l6.252,6.517-.187-8.246Z"/><path class="cls-1" d="m126.601,111.581l-32.813,29.433c-9.273,8.35-21.215,12.592-33.619,11.94-19.946-1.045-35.321-18.137-34.275-38.1.493-9.414,4.558-18.141,11.445-24.573,6.145-5.739,13.948-9.106,22.239-9.668,1.662-.113,2.972-1.456,2.995-3.122l.133-9.684c-12.946-.198-25.282,4.705-34.638,13.728-8.343,8.046-13.582,18.851-14.713,30.386-2.739,27.931,18.441,52.289,46.147,53.741,1.057.055,2.11.083,3.161.083,14.657,0,28.629-5.36,39.63-15.266l24.444-21.926c4.743-4.255,5.02-11.592.611-16.192l-.748-.78Z"/><path class="cls-1" d="m172.518,84.013c-8.748-9.716-20.756-15.443-33.812-16.128-15.824-.824-31.025,4.553-42.793,15.149l-24.441,21.933c-4.742,4.256-5.017,11.593-.608,16.192l.744.776,32.811-29.437c9.25-8.329,21.189-12.558,33.62-11.905,9.661.506,18.547,4.745,25.021,11.934s9.76,16.47,9.253,26.131c-1.009,19.246-17.14,34.322-36.726,34.322-6.166,0-12.176-1.52-17.515-4.356-1.165-.619-2.595-.427-3.577.454l-8.083,7.258c8.439,6.067,18.646,9.37,29.176,9.37,26.357,0,48.071-20.373,49.434-46.381.684-13.056-3.757-25.597-12.505-35.312Z"/><path class="cls-1" d="m99.804,32.258c-26.989,0-48.946,21.957-48.946,48.946l4.227-.003c1.847-.364,3.732-.585,5.637-.655,1.603-.059,2.883-1.33,3.04-2.926,1.805-18.296,17.279-32.637,36.042-32.637,19.269,0,35.157,15.057,36.169,34.278l12.708-.67c-1.368-25.982-22.838-46.334-48.877-46.334Z"/><path class="cls-1" d="m71.61,121.935l3.81,3.973c-2.037-3.374-1.436-6.103,2.464-9.602,3.9-3.499-4.063-2.137-4.063-2.137l-2.21,7.765Z"/><path class="cls-1" d="m126.602,111.582l-3.81-3.973c2.037,3.374,1.436,6.103-2.464,9.602-3.9,3.499,4.063,2.137,4.063,2.137l2.21-7.765Z"/></svg>