<svg width="4053" height="1000" viewBox="0 0 4053 1000" fill="none" xmlns="http://www.w3.org/2000/svg">
<g clip-path="url(#clip0_201_3133)">
<path d="M3780.21 720.75C3853.81 720.75 3922.39 690.642 3933.26 643.807C3936.61 673.915 3953.33 696.496 3977.59 708.205C3999.33 719.077 4026.1 720.75 4052.02 710.714V635.444C4041.15 637.953 4029.44 638.789 4020.24 631.262C4011.04 623.735 4004.35 607.008 4004.35 576.064V428.032C4004.35 336.871 3935.77 280 3816.18 280C3712.47 280 3633.85 322.653 3623.82 387.051L3704.11 410.469C3710.8 377.852 3750.1 355.27 3811.16 355.27C3869.7 355.27 3915.7 374.506 3915.7 406.287C3915.7 436.395 3873.88 450.613 3770.18 458.14C3671.49 465.667 3611.27 513.338 3611.27 590.281C3611.27 666.388 3670.65 720.75 3780.21 720.75ZM3780.21 646.316C3730.87 646.316 3700.76 625.408 3700.76 591.118C3700.76 558.5 3729.2 535.919 3775.19 532.574C3852.97 527.556 3900.65 518.356 3916.54 499.957C3916.54 588.609 3859.66 646.316 3780.21 646.316Z" fill="#EFEDF0"/>
<path d="M3358.14 282.79C3293.28 282.79 3234.66 313.374 3205.75 360.427C3183.08 311.022 3131.5 283.574 3076.01 282.79C3020.53 282.79 2973.64 311.022 2948.63 355.722V294.553H2864.22V709.881H2950.19V482.764C2950.19 410.617 2993.96 363.564 3056.48 363.564C3115.87 363.564 3153.38 407.48 3153.38 480.412V709.881H3239.35V481.196C3239.35 409.832 3282.34 363.564 3344.86 363.564C3403.47 363.564 3440.98 404.343 3440.98 478.843V709.881H3526.95V464.727C3526.95 409.048 3511.32 364.348 3480.06 332.195C3449.58 299.258 3408.94 282.79 3358.14 282.79Z" fill="#EFEDF0"/>
<path d="M1420.97 720.75C1554.79 720.75 1645.11 630.426 1645.11 497.448C1645.11 365.306 1556.46 280.836 1420.97 280.836C1285.49 280.836 1196 366.143 1196 497.448C1196 630.426 1288 720.75 1420.97 720.75ZM1420.97 640.462C1340.69 640.462 1285.49 581.082 1285.49 497.448C1285.49 414.65 1339.01 361.125 1420.97 361.125C1503.77 361.125 1555.63 414.65 1555.63 497.448C1555.63 581.918 1501.26 640.462 1420.97 640.462Z" fill="#EFEDF0"/>
<path d="M2040.54 280C1971.13 280 1911.75 308.435 1874.95 356.107V285.854H1747.83V358.616H1873.28C1848.19 392.069 1833.97 434.722 1833.97 484.066V637.116H1750.34V709.878H2033.02V637.116H1924.29V481.557C1924.29 414.65 1975.31 364.47 2040.54 364.47C2093.23 364.47 2127.52 398.76 2137.56 441.413L2219.52 412.141C2201.96 332.689 2135.05 280 2040.54 280Z" fill="#EFEDF0"/>
<path d="M2484.85 720.75C2558.45 720.75 2627.03 690.642 2637.9 643.807C2641.24 673.915 2657.97 696.496 2682.22 708.205C2703.97 719.077 2730.73 720.75 2756.66 710.714V635.444C2745.79 637.953 2734.08 638.789 2724.88 631.262C2715.68 623.735 2708.99 607.008 2708.99 576.064V428.032C2708.99 336.871 2640.41 280 2520.81 280C2417.11 280 2338.49 322.653 2328.45 387.051L2408.74 410.469C2415.43 377.852 2454.74 355.27 2515.79 355.27C2574.34 355.27 2620.34 374.506 2620.34 406.287C2620.34 436.395 2578.52 450.613 2474.81 458.14C2376.12 465.667 2315.91 513.338 2315.91 590.281C2315.91 666.388 2375.29 720.75 2484.85 720.75ZM2484.85 646.316C2435.5 646.316 2405.4 625.408 2405.4 591.118C2405.4 558.5 2433.83 535.919 2479.83 532.574C2557.61 527.556 2605.28 518.356 2621.17 499.957C2621.17 588.609 2564.3 646.316 2484.85 646.316Z" fill="#EFEDF0"/>
<g clip-path="url(#clip1_201_3133)">
<path d="M886.945 188.609C879.451 178.506 871.573 168.705 863.331 159.229L863.775 171.286L872.09 189.163L886.945 188.609Z" fill="#FB81B8"/>
<path fill-rule="evenodd" clip-rule="evenodd" d="M504.709 255.392C541.187 222.997 591.634 206.618 640.387 208.869C668.233 210.154 693.209 217.294 713.774 229.126C731.536 238.656 749.367 256.14 764.05 276.595C789.931 299.189 828.831 301.972 858.017 281.145C892.139 256.795 900.062 209.393 875.713 175.27C820.526 97.9295 732.911 61.1705 647.387 57.2225C561.965 53.2791 471.506 81.384 402.995 142.698C402.765 142.904 402.536 143.112 402.309 143.32C266.657 265.25 255.101 474.187 376.885 610.276C404.84 641.514 452.824 644.175 484.061 616.22C515.298 588.264 517.958 540.278 490.004 509.04C424 435.284 430.342 321.901 504.138 255.908C504.329 255.737 504.519 255.565 504.709 255.392Z" fill="url(#paint0_linear_201_3133)"/>
<mask id="mask0_201_3133" style="mask-type:alpha" maskUnits="userSpaceOnUse" x="292" y="56" width="598" height="580">
<path fill-rule="evenodd" clip-rule="evenodd" d="M504.731 255.373C541.207 222.99 591.644 206.618 640.389 208.868C668.234 210.153 693.21 217.293 713.775 229.126C731.537 238.655 749.368 256.139 764.051 276.594C789.932 299.188 828.832 301.972 858.018 281.144C892.14 256.794 900.063 209.392 875.714 175.269C820.527 97.9286 732.912 61.1696 647.388 57.2216C561.966 53.2782 471.507 81.3831 402.996 142.697C402.756 142.912 402.518 143.128 402.281 143.345C266.656 265.279 255.11 474.197 376.886 610.276C404.84 641.514 452.824 644.175 484.061 616.22C515.298 588.264 517.959 540.278 490.004 509.04C424.001 435.284 430.342 321.901 504.138 255.908C504.337 255.73 504.534 255.552 504.731 255.373Z" fill="url(#paint1_linear_201_3133)"/>
</mask>
<g mask="url(#mask0_201_3133)">
<g style="mix-blend-mode:multiply">
<path d="M407.426 80.4387L149.573 332.589L620.768 405.837L810.398 256.952V157.084L407.426 80.4387Z" fill="url(#paint2_linear_201_3133)"/>
</g>
</g>
<path fill-rule="evenodd" clip-rule="evenodd" d="M273.468 135.438C301.411 166.687 298.731 214.672 267.483 242.615C124.643 370.348 112.404 589.651 240.141 732.506C268.083 763.755 265.403 811.74 234.155 839.683C202.907 867.626 154.924 864.946 126.982 833.697C-56.6307 628.353 -39.0496 313.08 166.295 129.452C197.543 101.509 245.526 104.189 273.468 135.438Z" fill="url(#paint3_linear_201_3133)"/>
<path fill-rule="evenodd" clip-rule="evenodd" d="M132.968 726.521C164.216 698.578 212.199 701.258 240.141 732.507C367.87 875.353 587.165 887.591 730.014 759.85C761.262 731.907 809.245 734.587 837.187 765.836C865.129 797.085 862.449 845.07 831.201 873.013C625.865 1056.63 310.603 1039.05 126.982 833.698C99.0403 802.449 101.72 754.464 132.968 726.521Z" fill="url(#paint4_linear_201_3133)"/>
<path fill-rule="evenodd" clip-rule="evenodd" d="M817.382 216.307C853.599 195.199 900.07 207.449 921.177 243.667C1036.3 441.208 1013.4 710.095 831.275 872.995C800.031 900.943 752.048 898.269 724.102 867.023C696.156 835.777 698.829 787.792 730.074 759.845C852.579 650.268 872.967 462.432 790.023 320.106C768.916 283.888 781.165 237.415 817.382 216.307Z" fill="url(#paint5_linear_201_3133)"/>
<mask id="mask1_201_3133" style="mask-type:alpha" maskUnits="userSpaceOnUse" x="704" y="205" width="288" height="688">
<path fill-rule="evenodd" clip-rule="evenodd" d="M817.382 216.307C853.599 195.199 900.07 207.448 921.177 243.667C1036.3 441.207 1013.4 710.094 831.275 872.995C800.031 900.942 752.048 898.268 724.102 867.022C696.156 835.777 698.829 787.792 730.074 759.845C852.579 650.267 872.967 462.431 790.023 320.105C768.916 283.887 781.165 237.415 817.382 216.307Z" fill="url(#paint6_linear_201_3133)"/>
</mask>
<g mask="url(#mask1_201_3133)">
<g style="mix-blend-mode:multiply">
<path d="M787.171 527.842L533.284 792.631L905.437 898.538L1065 514.67L854.752 57.4146L835.979 439.402L787.171 527.842Z" fill="url(#paint7_linear_201_3133)"/>
</g>
</g>
<path fill-rule="evenodd" clip-rule="evenodd" d="M832.644 128.021L854.834 152.579L877.089 177.137C876.539 176.313 875.953 175.46 875.334 174.583L877.382 176.781C876.461 175.564 874.762 173.442 872.505 170.714C862.348 157.239 846.17 139.694 832.644 128.021Z" fill="#F97CBF"/>
<path fill-rule="evenodd" clip-rule="evenodd" d="M382.919 503.08C414.166 475.137 462.149 477.816 490.092 509.065C556.082 582.864 669.461 589.205 743.214 523.199C774.451 495.244 822.435 497.905 850.39 529.143C878.344 560.381 875.683 608.367 844.447 636.322C708.149 758.303 498.777 746.518 376.934 610.257C348.992 579.009 351.671 531.024 382.919 503.08Z" fill="url(#paint8_linear_201_3133)"/>
<path fill-rule="evenodd" clip-rule="evenodd" d="M870.494 168.74C842.54 137.502 794.556 134.841 763.319 162.796C736.269 187.004 730.648 226.233 747.78 256.599C757.201 266.774 765.958 278.484 773.449 290.8C821.69 363.767 810.393 463.057 743.242 523.108C711.994 551.051 709.315 599.036 737.257 630.285C765.2 661.534 813.183 664.214 844.43 636.27C980.686 514.423 992.47 305.042 870.494 168.74Z" fill="url(#paint9_linear_201_3133)"/>
<path fill-rule="evenodd" clip-rule="evenodd" d="M741.442 250.089C634.37 124.866 409.641 115.57 267.487 242.69C236.239 270.633 188.256 267.953 160.313 236.704C132.371 205.455 135.051 157.47 166.299 129.527C367.108 -50.0447 710.265 -50.0492 875.122 174.519C899.929 208.311 892.646 255.815 858.855 280.623C829.712 302.019 790.37 299.544 764.185 276.781C757.204 267.034 749.507 257.958 741.442 250.089Z" fill="url(#paint10_linear_201_3133)"/>
</g>
</g>
<defs>
<linearGradient id="paint0_linear_201_3133" x1="412.101" y1="502.363" x2="463.265" y2="173.461" gradientUnits="userSpaceOnUse">
<stop stop-color="#F6D25B"/>
<stop offset="1" stop-color="#F8B580"/>
</linearGradient>
<linearGradient id="paint1_linear_201_3133" x1="412.102" y1="502.363" x2="463.266" y2="173.46" gradientUnits="userSpaceOnUse">
<stop stop-color="#F6D25B"/>
<stop offset="1" stop-color="#F8B580"/>
</linearGradient>
<linearGradient id="paint2_linear_201_3133" x1="641.4" y1="18.4142" x2="346.724" y2="358.578" gradientUnits="userSpaceOnUse">
<stop stop-color="#895200"/>
<stop offset="0.833333" stop-color="#E28800" stop-opacity="0"/>
</linearGradient>
<linearGradient id="paint3_linear_201_3133" x1="146.395" y1="186.033" x2="182.872" y2="719.825" gradientUnits="userSpaceOnUse">
<stop stop-color="#ED51F2"/>
<stop offset="1" stop-color="#B771F2"/>
</linearGradient>
<linearGradient id="paint4_linear_201_3133" x1="145.334" y1="750.869" x2="711.325" y2="784.954" gradientUnits="userSpaceOnUse">
<stop stop-color="#B971F3"/>
<stop offset="1" stop-color="#8F6FDE"/>
</linearGradient>
<linearGradient id="paint5_linear_201_3133" x1="850.621" y1="326.396" x2="762.953" y2="845.166" gradientUnits="userSpaceOnUse">
<stop stop-color="#6A4BB2"/>
<stop offset="1" stop-color="#9170E0"/>
</linearGradient>
<linearGradient id="paint6_linear_201_3133" x1="850.621" y1="279.436" x2="748.292" y2="838.57" gradientUnits="userSpaceOnUse">
<stop stop-color="#6A4BB2"/>
<stop offset="1" stop-color="#9170E0"/>
</linearGradient>
<linearGradient id="paint7_linear_201_3133" x1="725.222" y1="493.971" x2="857.14" y2="772.221" gradientUnits="userSpaceOnUse">
<stop stop-color="#542DA7"/>
<stop offset="0.833333" stop-color="#5F2EAF" stop-opacity="0"/>
</linearGradient>
<linearGradient id="paint8_linear_201_3133" x1="452.299" y1="506.015" x2="711.758" y2="579.099" gradientUnits="userSpaceOnUse">
<stop stop-color="#F6D25B"/>
<stop offset="1" stop-color="#F9A38F"/>
</linearGradient>
<linearGradient id="paint9_linear_201_3133" x1="825.466" y1="303.379" x2="836.377" y2="579.688" gradientUnits="userSpaceOnUse">
<stop stop-color="#FA80B7"/>
<stop offset="1" stop-color="#F8A48D"/>
</linearGradient>
<linearGradient id="paint10_linear_201_3133" x1="236.692" y1="166.152" x2="795.806" y2="195.386" gradientUnits="userSpaceOnUse">
<stop stop-color="#E755F3"/>
<stop offset="1" stop-color="#F97FB6"/>
</linearGradient>
<clipPath id="clip0_201_3133">
<rect width="4053" height="1000" fill="white"/>
</clipPath>
<clipPath id="clip1_201_3133">
<rect width="991.962" height="1000" fill="white"/>
</clipPath>
</defs>
</svg>
