<svg xmlns="http://www.w3.org/2000/svg" width="2372" height="2500" viewBox="19.99 16.124 447.039 471.129" enable-background="new 19.99 16.124 447.039 471.129"><filter id="g"><feGaussianBlur stdDeviation="1.309"/></filter><title>Gentoo Logo Vector</title><g transform="translate(-172.795 -130.046)"><linearGradient id="a" gradientUnits="userSpaceOnUse" x1="-1599.241" y1="918.2" x2="-1639.035" y2="679.198" gradientTransform="matrix(1 0 0 -1 2056.6 1018.715)"><stop offset="0" stop-color="#7b7bdf"/><stop offset="1" stop-color="#a6a6e9"/></linearGradient><path d="M373.67 146.171c-36.384.107-65.232 11.184-79.031 18.781-40.545 22.325-70.759 56.575-80.781 77.719-20.594 43.385-18.712 64.412 3.844 91.688 17.12 20.701 79.625 53.281 79.625 53.281s-53.818 47.229-74.688 66.999c-20.868 19.771-37.327 48.316-26.344 92.25 10.984 43.935 45.031 59.312 45.031 59.312s44.474 26.37 110.375-2.188c65.902-28.557 114.781-59.312 114.781-59.312s97.202-66.433 123.562-97.188c26.361-30.753 62.069-60.979 45.594-110.405-16.475-49.427-90.062-115.312-90.062-115.312s-73.36-56.1-126.188-69.844a179.082 179.082 0 0 0-45.718-5.781zm26.875 151.5c2.484 0 5 .188 7.25.688 6.291 1.397 15.911 6.65 21.188 9.719-2.248.883-4.918 1.579-8.094 2.125-8.186 1.406-21.883-3.865-32.625-11.344 2.762-.5 7.458-1.188 12.281-1.188z" fill="url(#a)"/><radialGradient id="b" cx="-1885.291" cy="829.898" r="303.342" gradientTransform="matrix(.691 1.0117 .8154 -.557 880.364 2691.419)" gradientUnits="userSpaceOnUse"><stop offset="0" stop-color="#fff"/><stop offset=".487" stop-color="#fff"/><stop offset=".593" stop-color="#d9d9f6"/><stop offset="1" stop-color="#adadeb"/></radialGradient><path d="M376.826 155.296c-.87 0-1.727.005-2.594.031-55.467 1.647-91.719 28.562-91.719 28.562-11.532 9.885-51.633 39.262-60.969 64.25-9.404 25.172-4.936 45.601 13.188 58.781 18.123 13.18 75.781 37.344 75.781 37.344l28.562 14.281s-20.876 24.716-42.844 43.938c-21.967 19.221-30.443 27.955-53.156 51.155-13.175 13.459-24.457 27.485-27.594 53.75-2.285 19.14 2.311 37.452 15.031 48.219 12.722 10.768 30.227 20.984 65.188 14.281 40.725-7.807 71.531-24.719 71.531-24.719s92.9-46.981 142.875-84.875c49.976-37.893 100.625-94.624 100.625-94.624s17.536-11.532-1.562-46.219c-19.543-35.496-76.948-85.972-96.719-100.25-19.46-14.055-80.804-63.922-135.624-63.905zm23.719 142.375c2.484 0 5 .188 7.25.688 6.291 1.397 15.911 6.65 21.188 9.719-2.248.883-4.918 1.579-8.094 2.125-8.186 1.406-21.883-3.865-32.625-11.344 2.762-.5 7.458-1.188 12.281-1.188z" fill="url(#b)"/><radialGradient id="c" cx="-1668.807" cy="741.623" r="77.791" gradientTransform="matrix(1.0949 0 0 -.9133 2268.318 927.173)" gradientUnits="userSpaceOnUse"><stop offset="0" stop-color="#fff"/><stop offset=".304" stop-color="#fff"/><stop offset=".607" stop-color="#e6e6f9"/><stop offset="1" stop-color="#9999e6"/></radialGradient><path d="M388.513 236.608c-20.319.549-39.549 20.323-39 36.25.55 15.926 20.875 32.969 20.875 32.969s31.287 26.884 59.844 24.688c28.558-2.197 30.75-19.75 30.75-19.75s6.588-23.078-10.438-41.75c-17.024-18.673-41.71-32.956-62.031-32.407zm12.032 61.063c2.484 0 5 .188 7.25.688 6.291 1.397 15.911 6.65 21.188 9.719-2.248.883-4.918 1.579-8.094 2.125-8.186 1.406-21.883-3.865-32.625-11.344 2.762-.5 7.458-1.188 12.281-1.188z" fill="url(#c)" fill-opacity=".75"/><radialGradient id="d" cx="-1751.852" cy="675.091" r="35.682" gradientTransform="matrix(1.5036 -.0564 -.0411 -1.0953 3066.734 946.74)" gradientUnits="userSpaceOnUse"><stop offset="0"/><stop offset="1" stop-color="#9999e6"/></radialGradient><path d="M397.295 256.39c-18.123.274-26.374 8.438-24.719 23.062.723 6.381 7.299 13.566 15.688 19.406 2.763-.499 7.459-1.188 12.281-1.188 2.484 0 5 .188 7.25.688 6.283 1.396 15.876 6.648 21.156 9.719.007.004.024-.004.031 0 8.451-3.32 10.776-9.194 10.031-18.75-.9-11.553-24.144-33.212-41.718-32.937zm8.25 51.468zm23.187.313c-.378.145-.784.271-1.188.406.406-.136.808-.262 1.188-.406zm-7.844 2.031z" fill="url(#d)" fill-opacity=".75"/><linearGradient id="e" gradientUnits="userSpaceOnUse" x1="-1862.073" y1="601.986" x2="-1819.725" y2="674.7" gradientTransform="matrix(1.0832 0 0 -.9232 2242.237 937.584)"><stop offset="0" stop-opacity=".459"/><stop offset="1" stop-color="#9999e6"/></linearGradient><path d="M207.818 281.1s3.295 17.574 25.812 33.5c22.517 15.927 64.228 31.939 86.139 44.642 4.199 2.435 4.91 6.049-2.972 13.061-7.555 6.719-12.485 10.972-12.485 10.972s-63.089-34.932-79.841-50.683c-27.078-25.46-16.653-51.492-16.653-51.492z" fill="url(#e)" fill-opacity=".75"/><linearGradient id="f" gradientUnits="userSpaceOnUse" x1="-1911.382" y1="218.944" x2="-1649.582" y2="484.526" gradientTransform="matrix(1.3483 0 0 -.7417 2833.67 745.875)"><stop offset="0" stop-opacity=".459"/><stop offset="1" stop-color="#9999e6"/></linearGradient><path d="M202.29 543.295s20.588 37.552 69.233 37.657c39.232.084 76.555-11.629 135.099-41.188C489.51 497.91 553.203 447.6 585.055 419.592c31.853-28.009 49.181-50.483 49.181-50.483s-18.377 42.696-44.737 67.958c-26.361 25.263-91.714 82.927-154.869 117.524-63.155 34.599-106.157 58.396-150.299 56.231-41.875-2.054-61.685-26.575-70.472-38.108-8.786-11.532-11.569-29.419-11.569-29.419z" fill="url(#f)" fill-opacity=".75"/><g filter="url(#g)"><linearGradient id="h" gradientUnits="userSpaceOnUse" x1="-1567.522" y1="572.244" x2="-1804.649" y2="341.105" gradientTransform="matrix(1.2006 0 0 -.8329 2504.052 842.275)"><stop offset="0" stop-color="#fff"/><stop offset="1" stop-color="#fff" stop-opacity="0"/></linearGradient><path d="M315.458 562.829s38.442-8.238 111.483-48.328 103.482-66.85 125.418-85.024 54.254-45.056 64.688-57.687c10.436-12.631 7.496-21.391 3.048-23.772-3.423-1.834-13.116 5.869-18.597 11.931-5.48 6.062-46.598 44.168-69.663 63.938s-87.869 71.393-126.861 93.909c-38.992 22.516-89.516 45.033-89.516 45.033z" fill="url(#h)"/></g></g></svg>