<svg width="279" height="60" viewBox="0 0 279 60" fill="none" xmlns="http://www.w3.org/2000/svg">
    <path
        d="M81.1796 38.0492C81.1796 38.8427 81.0124 39.5429 80.678 40.1591C80.3436 40.7752 79.8791 41.2514 79.2659 41.5874C78.6528 41.9235 77.9653 42.0916 77.1757 42.0916H73.2646V47.8145H78.0025C79.7862 47.8145 81.384 47.413 82.8054 46.6101C84.2267 45.8073 85.3415 44.6963 86.1497 43.2866C86.958 41.8769 87.3667 40.2898 87.3667 38.516V19.7042H81.1796V38.0492ZM97.8364 36.3407H110.796V31.0846H97.8364V25.119H112.161V19.7042H91.8073V47.8051H112.561V42.3903H97.8364V36.35V36.3407ZM114.503 25.2777H122.789V47.7958H128.976V25.2777H137.226V19.7042H114.493V25.2871L114.503 25.2777ZM158.369 33.7173C157.886 33.4559 157.357 33.2599 156.809 33.1105C157.227 32.9891 157.626 32.8398 157.998 32.653C159.02 32.1209 159.828 31.374 160.404 30.4124C160.98 29.4508 161.277 28.3492 161.277 27.0982C161.277 25.6698 160.887 24.3908 160.116 23.2612C159.345 22.1409 158.258 21.2633 156.864 20.6285C155.471 20.003 153.873 19.6855 152.089 19.6855H139.669V47.7865H152.331C154.208 47.7865 155.88 47.4597 157.357 46.7969C158.825 46.134 159.967 45.2191 160.785 44.0334C161.593 42.8571 162.002 41.5128 162.002 40.0004C162.002 38.6093 161.686 37.3676 161.045 36.266C160.404 35.1644 159.521 34.3148 158.379 33.708L158.369 33.7173ZM145.679 24.4188H151.17C151.932 24.4188 152.6 24.5589 153.186 24.8296C153.771 25.1003 154.226 25.4924 154.551 26.0059C154.876 26.51 155.044 27.1075 155.044 27.7891C155.044 28.4706 154.876 29.1148 154.551 29.6469C154.226 30.179 153.771 30.5805 153.186 30.8699C152.6 31.1593 151.932 31.2993 151.17 31.2993H145.679V24.4095V24.4188ZM155.137 41.4194C154.784 41.9515 154.282 42.3623 153.641 42.6517C152.991 42.9411 152.257 43.0812 151.411 43.0812H145.679V35.8739H151.411C152.238 35.8739 152.972 36.0326 153.622 36.3407C154.263 36.6488 154.774 37.0782 155.127 37.6384C155.48 38.1985 155.666 38.8334 155.666 39.5522C155.666 40.2711 155.49 40.8873 155.137 41.4194ZM182.746 36.4434C184.298 35.6965 185.496 34.6416 186.351 33.2879C187.205 31.9342 187.633 30.3658 187.633 28.5733C187.633 26.7808 187.215 25.2684 186.378 23.924C185.542 22.5797 184.353 21.5434 182.82 20.8058C181.288 20.0683 179.513 19.7042 177.488 19.7042H165.244V47.8051H171.44V37.573H175.472L181.148 47.8051H188.218L181.826 36.8168C182.142 36.7048 182.458 36.5834 182.755 36.4434H182.746ZM180.74 30.7018C180.396 31.29 179.903 31.7475 179.262 32.0555C178.621 32.373 177.869 32.5317 177.005 32.5317H171.431V24.7549H177.005C177.869 24.7549 178.621 24.9136 179.262 25.2217C179.903 25.5298 180.396 25.9872 180.74 26.5661C181.083 27.1449 181.26 27.8357 181.26 28.62C181.26 29.4042 181.083 30.095 180.74 30.6832V30.7018ZM199.951 19.7042L189.964 47.8051H196.254L198.232 41.6061H208.6L210.718 47.8051H216.887L206.658 19.7042H199.951ZM199.635 36.9009L202.849 26.9862L203.23 25.1844L203.611 26.9862L207.049 36.9009H199.635ZM218.94 47.8051H225.331V19.7042H218.94V47.8051ZM247.878 38.712L235.847 19.7042H229.818V47.8051H235.466V28.7973L247.432 47.8051H253.526V19.7042H247.878V38.712ZM277.289 35.5658C276.686 34.3988 275.831 33.4186 274.744 32.625C273.657 31.8315 272.403 31.3087 270.991 31.0379L266.234 30.0577C265.491 29.8803 264.897 29.5722 264.46 29.1241C264.023 28.676 263.801 28.1158 263.801 27.453C263.801 26.8461 263.958 26.3233 264.284 25.8752C264.599 25.4271 265.055 25.0817 265.631 24.8296C266.207 24.5775 266.875 24.4562 267.637 24.4562C268.399 24.4562 269.086 24.5869 269.672 24.8483C270.257 25.1097 270.712 25.4738 271.037 25.9499C271.363 26.426 271.53 26.9582 271.53 27.565H277.726C277.689 25.9312 277.234 24.4842 276.379 23.2332C275.524 21.9728 274.326 20.9926 272.802 20.283C271.279 19.5735 269.532 19.2188 267.582 19.2188C265.631 19.2188 263.903 19.5828 262.388 20.3204C260.874 21.0579 259.685 22.0755 258.84 23.3825C257.994 24.6896 257.567 26.174 257.567 27.8451C257.567 29.1988 257.836 30.4218 258.385 31.5047C258.933 32.597 259.704 33.5026 260.698 34.2215C261.701 34.9403 262.853 35.4445 264.172 35.7245L269.207 36.7701C270.034 36.9662 270.684 37.3303 271.167 37.8531C271.65 38.3759 271.883 39.0201 271.883 39.8043C271.883 40.4298 271.706 40.9993 271.353 41.4941C271 41.9889 270.508 42.3717 269.876 42.6424C269.244 42.9131 268.501 43.0438 267.647 43.0438C266.792 43.0438 265.984 42.8945 265.287 42.5957C264.59 42.297 264.051 41.8675 263.67 41.3074C263.28 40.7566 263.094 40.1124 263.094 39.3935H256.898C256.926 41.1487 257.391 42.6891 258.31 44.0334C259.221 45.3685 260.475 46.4141 262.073 47.1609C263.67 47.9078 265.501 48.2812 267.563 48.2812C269.625 48.2812 271.483 47.8985 273.081 47.1329C274.688 46.3674 275.933 45.3125 276.834 43.9681C277.735 42.6237 278.181 41.102 278.181 39.4029C278.181 38.0118 277.875 36.7328 277.271 35.5565L277.289 35.5658Z"
        fill="white" />
    <path
        d="M19.4749 3.43125L3.91436 19.0688C1.73141 21.2625 0.5 24.2437 0.5 27.3563V55.3125C0.5 57.9 2.58966 60 5.16443 60H32.9831C36.0803 60 39.0375 58.7625 41.2298 56.5687L56.7903 40.9313C58.9733 38.7375 60.2047 35.7562 60.2047 32.6437V4.6875C60.2047 2.1 58.115 0 55.5403 0H27.7216C24.6244 0 21.6672 1.2375 19.4749 3.43125Z"
        fill="url(#paint0_linear_4528_401)" />
    <path d="M45.2783 15H7.96289V52.5H45.2783V15Z" fill="black" />
    <path d="M28.487 44.0625H12.6279V47.8125H28.487V44.0625Z" fill="white" />
    <defs>
        <linearGradient id="paint0_linear_4528_401" x1="1.29295" y1="58.8" x2="59.1976" y2="1.98254"
            gradientUnits="userSpaceOnUse">
            <stop stop-color="#FF9419" />
            <stop offset="0.43" stop-color="#FF021D" />
            <stop offset="0.99" stop-color="#E600FF" />
        </linearGradient>
    </defs>
</svg>