<svg viewBox="0 0 519.36 293.65" xmlns="http://www.w3.org/2000/svg"><path clip-rule="evenodd" d="m478.2 30.541c-1.708-.45694-3.4119-.54087-5.1767-.54087h-427.93c-6.4231.050078-12.061 4.1054-14.195 10.144-.69747 1.9633-.90029 3.9505-.90029 6.0098v202.42c.23751 8.4346 6.8365 15.012 15.194 15.033 17.519.0232 53.594-.0631 53.594-.0631l-.06358-15.665h-52.62c-.27926-1.6828-.20829-199.78.06358-200.69 1.6119-.225 425.79-.1438 426.72.07426.25653 1.5279.1824 199.65-.0982 200.69h-354.74v15.667s1.3845 0 2.0182.0232h354.25c6.3531-.0631 11.982-4.0483 14.147-10.038.69741-1.9079.89785-3.8747.89785-5.886v-202.8c-.13354-6.6996-4.6932-12.585-11.143-14.365zm-360.14 174.01v-40.513c0-.91374.25653-1.5554 1.0028-2.1347 3.129-2.4743 6.2158-5.019 9.3034-7.5448.30803-.22871.60752-.43189.99168-.71223.33308.4305.61322.78284.87185 1.1699 5.2486 7.5722 10.501 15.136 15.746 22.696 6.4361 9.3128 12.883 18.583 19.306 27.852.35674.53803.68407.94598 1.475.94598 6.7627-.0232 13.519-.0232 20.273-.0232.22361 0 .4537-.0743.80993-.15494-14.956-21.781-29.85-43.412-44.79-65.174 3.0057-3.4891 5.9134-6.8472 8.8178-10.288 2.912-3.3691 5.8136-6.7497 8.7208-10.142 2.9029-3.3839 5.7849-6.7734 8.6954-10.161 2.9045-3.3952 5.8136-6.7826 8.6851-10.168 2.8915-3.3601 5.7622-6.7219 8.8271-10.347h-1.704c-6.1202 0-12.237.03707-18.358-.0232-1.1253 0-1.835.32611-2.5775 1.1995-15.036 17.806-30.108 35.614-45.178 53.399-.19994.22776-.45973.43188-.89398.83223v-44.294c0-3.6662.0631-7.3435 0-11.012h-18.909v116.15c1.5011.2635 17.926.20969 18.939-.0631v-1.4778zm100.96 1.681c.15215-.43977.32612-.81748.45878-1.2267 3.0557-8.6814 6.1147-17.348 9.1787-26.037.50973-1.3965 1.0166-2.8008 1.4772-4.2031.18231-.58535.48083-.89161 1.0981-.81748.19994.0232.43236 0 .6355 0h43.136c3.8993 10.803 7.7716 21.529 11.629 32.255h20.193c-14.567-39.029-29.072-77.903-43.549-116.77h-20.649c-.1327.25469-.2301.44024-.28254.61435-14.377 38.551-28.737 77.119-43.109 115.66-.0631.0631-.0631.18231-.0631.25654v.1234c0 .0501.0631.0743.0743.1322h19.734zm17.457-50.036c3.9768-11.515 8.0101-22.979 11.885-34.526 1.5549-4.6404 2.7269-9.4269 4.0507-14.159.11181-.3586.18231-.7185.33309-1.2583.19994.30524.35627.49141.41055.69246 3.1587 11.794 7.4766 23.237 11.398 34.807 1.6288 4.8139 3.3157 9.5985 4.9739 14.415.12618.43097.25097.86203.40405 1.3949h-33.882c.15123-.50194.27927-.93364.42586-1.3654zm102.24-57.278c0-3.0077.11083-5.988-.0868-8.9671h-18.675c-.31545 1.4523-.23845 115.33.0631 116.29h68.021v-16.18h-32.812c-2.7584 0-5.5385.0232-8.2848 0-2.7069-.0232-5.4025.0993-8.2101-.0631v-91.058zm81.201-8.2513c0-.18045 0-.33029-.0626-.51752 0-.05008-.0626-.06309-.0626-.09881 0-.0232-.0749-.06309-.0749-.06309h-18.739v116.22h18.838c.0626-.19531.11047-.29922.11047-.43097v-115.11z" fill="#367bf0" fill-rule="evenodd" stroke-width="1.2274"/></svg>