<svg width="256" height="256" viewBox="0 0 256 256" id="svg2" version="1.1" xmlns="http://www.w3.org/2000/svg" xmlns:svg="http://www.w3.org/2000/svg"><g id="layer3"><circle style="fill:#86be43;stroke:none;stroke-width:0;stroke-miterlimit:4;stroke-dasharray:none" id="path40" cx="128" cy="128" r="128" /><path style="color:#000000;fill:#ffffff;stroke-width:0;-inkscape-stroke:none" d="m 44.00001,50.00001 v 108 c 0,26.3675 21.63249,48 48,48 h 72 c 26.3675,0 48,-21.6325 48,-48 v -60 c 0,-19.7401 -16.25991,-36 -36,-36 -9.22193,0 -17.60014,3.64514 -24,9.43946 -6.39986,-5.79432 -14.77808,-9.43946 -24,-9.43946 -19.7401,0 -36,16.2599 -36,36 v 60 h 24 v -60 c 0,-6.76954 5.23046,-12 12,-12 6.76953,0 12,5.23046 12,12 v 60 h 24 v -60 c 0,-6.76954 5.23046,-12 12,-12 6.76953,0 12,5.23046 12,12 v 60 c 0,13.39696 -10.60304,24 -24,24 h -72 c -13.39697,0 -24,-10.60304 -24,-24 v -108 z" id="path4193" /></g></svg>