<svg xmlns="http://www.w3.org/2000/svg" width="2500" height="1582" viewBox="72.801 75.424 248.4 157.155"><path d="M318.551 190.72c0 .189-.16.351-.359.351h-.16a.356.356 0 0 1-.351-.351v-2.979H316v2.979c0 .189-.17.351-.37.351h-.148a.356.356 0 0 1-.352-.351v-2.979h-1.26a.32.32 0 0 1-.33-.33v-.17c0-.2.15-.32.33-.32h4.41c.17 0 .29.062.35.16l.83 1.25.83-1.25c.07-.09.17-.16.351-.16h.561v3.83c0 .181-.17.351-.37.351l-.05-.029h-.16a.356.356 0 0 1-.351-.351v-2.5l-.55.84a.344.344 0 0 1-.271.12h-.061c-.101 0-.221-.04-.279-.12l-.561-.84.002 2.498zM312.65 218.62v.811c0 1.779-1.351 3.08-3.221 3.08H285.1c-1.771 0-3.09-1.33-3.09-3.08V188.91c0-1.76 1.369-3.08 3.149-3.08l.01.03h23.25c1.87 0 3.23 1.29 3.23 3.069v.811c0 1.779-1.36 3.069-3.23 3.069H289.51v7.989h14.59c1.87 0 3.229 1.312 3.229 3.091v.801c0 1.79-1.359 3.079-3.229 3.079h-14.59v7.779h19.92c1.88.002 3.22 1.312 3.22 3.072z" fill="#73ba25"/><path d="M290.56 91.38c7.689.271 13.721 6.75 13.46 14.431-.141 3.72-1.699 7.16-4.42 9.7-2.721 2.55-6.261 3.869-10 3.739-7.681-.279-13.699-6.75-13.449-14.43.13-3.72 1.688-7.17 4.42-9.71a13.827 13.827 0 0 1 9.989-3.73zm9.81 14.14c.181-5.471-4.101-10.07-9.569-10.26a9.765 9.765 0 0 0-7.101 2.649 9.788 9.788 0 0 0-3.141 6.9c-.181 5.47 4.101 10.069 9.561 10.27a9.937 9.937 0 0 0 7.12-2.66 9.813 9.813 0 0 0 3.13-6.899z" fill="#fff"/><path d="M290.801 95.26c5.47.189 9.75 4.789 9.569 10.26a9.813 9.813 0 0 1-3.13 6.899 9.937 9.937 0 0 1-7.12 2.66c-5.46-.2-9.74-4.8-9.561-10.27a9.786 9.786 0 0 1 3.141-6.9 9.766 9.766 0 0 1 7.101-2.649zm6.019 7.91c0-1.63-1.971-2.939-4.4-2.939-2.429 0-4.39 1.31-4.39 2.939 0 1.61 1.96 2.931 4.39 2.931 2.43-.001 4.4-1.321 4.4-2.931z" fill="#73ba25"/><path d="M292.42 100.23c2.431 0 4.4 1.31 4.4 2.939 0 1.61-1.971 2.931-4.4 2.931-2.429 0-4.39-1.32-4.39-2.931 0-1.629 1.96-2.939 4.39-2.939z" fill="#fff"/><path d="M275.6 208.41v4.89c0 5.602-3.34 9.211-8.55 9.211h-19.87c-1.87 0-3.221-1.311-3.221-3.08v-.811c0-1.771 1.351-3.07 3.221-3.07h18.851c2.05 0 2.109-2.81 2.109-3.119V209.5c0-.96-.38-2.09-2.109-2.09H252.22c-3.931 0-8.189-3.22-8.189-8.41v-4.529c0-3.54 3.34-8.641 9.359-8.641v.04h16.221c1.89 0 3.29 1.33 3.29 3.07v.81c0 1.761-1.391 3.08-3.221 3.08h-15.06c-1.979 0-3.109.971-3.109 2.67v2.69c0 1.1.92 2.608 2.971 2.608h13.6c3.748.002 7.518 2.362 7.518 7.612zM234.31 185.83c1.811 0 3.221 1.42 3.221 3.229v24.029c0 5.591-4.391 9.642-10.45 9.642h-11.229c-6.061 0-10.449-4.051-10.449-9.642v-24.029a3.2 3.2 0 0 1 3.22-3.229h1.021a3.22 3.22 0 0 1 3.229 3.229V212.2c0 1.85 1.49 3.34 3.33 3.34h10.51c1.83 0 3.33-1.49 3.33-3.34v-23.14a3.235 3.235 0 0 1 3.229-3.229h.021l1.017-.001zM198.95 208.41v4.89c0 5.602-3.359 9.211-8.55 9.211h-19.88c-1.88 0-3.23-1.311-3.23-3.08v-.811c0-1.771 1.36-3.07 3.23-3.07h18.85c2.04 0 2.09-2.81 2.09-3.119V209.5c0-.96-.359-2.09-2.09-2.09h-13.81c-3.95 0-8.19-3.22-8.19-8.41v-4.529c0-3.54 3.33-8.641 9.36-8.641l.02.04h16.23c1.88 0 3.29 1.33 3.29 3.07v.81c0 1.761-1.391 3.08-3.23 3.08h-15.06c-1.99 0-3.12.971-3.12 2.67v2.69c0 1.1.92 2.608 2.97 2.608h13.59c3.75.002 7.53 2.362 7.53 7.612z" fill="#73ba25"/><path d="M312.801 124.64l1.021-.19c.279.22.239.67.149 1.07-.189.93-.641 2.62-.95 3.42l-.26.66c-.359.979-.721 1.91-1.41 2.47-1.899 1.729-4.939 3.11-9.699 5.19-7.36 3.22-19.29 5.25-30.37 5.18-3.971-.09-7.811-.53-11.181-.91-10.319-1.18-17.779-2.02-19.33 7.36-1.96 11.76 9.101 26.04 9.211 26.169l-.011.391-.359.09s-17.63-8.12-18.061-8.359l-.561-.399-.45-.431c-1.33-1.279-4-4.149-9.42-10.431-10.51-12.149-22.81-13.75-32.29-11.439-2.31.55-5.25 2.24-7.16 4.14-4.949 4.88-4.39 14.71-4.109 18.29.33 4.05.54 4.351.63 4.68l-.061.409-.35.04-.2-.14-14.46-7.07-.55-2.359c-.37-1.561-.8-3.29-1.62-5.46-5.17-13.631-16.79-23.881-29.59-26.091-8.65-1.489-24.42-1.659-32.771 14.101-3.489 6.58-3.279 15.149.551 22.37 3.899 7.391 10.87 12.13 19.12 13.04 8.18.891 14.329-1 17.779-5.471 3.48-4.51 4.13-10.649 1.66-15.649-2.649-5.369-6.649-8.221-12.21-8.689-4.229-.38-7.37 1.38-8.5 3.18-.33.562-.93 1.602-.939 3.08v.051c0 4.029 3.689 5.13 4.439 5.181.23 0 1.34-.03 2.811-.4l.71-.229.489-.171.36-.069c2.68-.49 5.26 1.09 6.01 3.7.13.479.2.96.2 1.438 0 1.73-.88 3.341-2.34 4.32l.06-.021-.16.09-.239.149c-.771.49-1.48.761-2.23.99-2.1.689-3.96 1.01-5.83 1.01-6.38-.01-15.27-5.5-15.39-15.81-.061-5.82 2.86-11.12 8-14.53 5.92-3.91 16.149-5.24 25.64.58 11.681 7.15 14.73 21.149 11.681 30.7-4.431 13.83-16.891 21.22-33.341 19.75-11.649-1.04-22.47-7.19-28.909-16.45-2.86-4.101-4.98-8.67-6.12-13.229-2.63-10.431.029-21.511 2.01-26.42 6.3-15.61 18.36-29.04 35.81-39.931l1.101-.689C157.93 74.08 184.2 75 203.43 75.67c22.681.79 46.87 8.61 50.21 9.721.011-.75.141-7.511.141-7.511l.101-.229.26-.07c1.521.21 34.109 5.05 47.841 13.05 1.699 1 2.539 2.04 3.59 3.12 3.79 3.92 8.811 20.25 9.34 23.62l-.2.34c-.199.07-.67.42-1.3.84-3.2 2.24-10.689 7.48-20.29 6.62-8.63-.76-19.899-5.71-33.489-14.659.601 1.409 3.43 8.109 3.909 9.239l.181.221c1.971 1.02 20.851 10.64 30.221 10.449 7.555-.151 15.625-3.841 18.856-5.781zm-8.781-18.83c.261-7.681-5.771-14.16-13.46-14.431a13.824 13.824 0 0 0-9.989 3.73c-2.729 2.54-4.29 5.99-4.42 9.71-.25 7.68 5.77 14.15 13.449 14.43 3.739.13 7.279-1.189 10-3.739 2.72-2.54 4.28-5.98 4.42-9.7zM149.12 201.6c1.3-.619 2.92-1.38 5.061-1.38h.66c3.739 0 6.159 2.229 6.159 5.659V220.9c0 .909-.739 1.648-1.63 1.648h-.64c-.91 0-1.63-.739-1.63-1.648v-14.48c0-1.359-1.11-2.47-2.46-2.47h-5.431a2.467 2.467 0 0 0-2.46 2.47v14.48c0 .909-.739 1.648-1.63 1.648h-.64c-.91 0-1.63-.739-1.63-1.648v-19.14c0-.819.55-1.399 1.31-1.399h.63c.601 0 1.04.26 1.28.77l.45.82c.189.34.29.359.54.359.561 0 1.251-.34 2.061-.71zM138.35 205.67v4.431c0 1.891-1.101 3.011-2.92 3.011h-11.37v3.34c0 1.649.93 2.51 2.7 2.51h6.3c.939 0 1.63.65 1.63 1.54v.5c0 .9-.69 1.55-1.63 1.55h-7.681c-2.84 0-5.239-2.52-5.239-5.479V205.64c0-2.92 2.47-5.279 5.51-5.279l.01.02h7.17c3.04-.001 5.52 2.379 5.52 5.289zm-3.94 4.04v-3.55c0-1.24-.96-2.2-2.189-2.2h-5.98c-1.24 0-2.189.98-2.189 2.2v3.55h10.358zM100.341 216.48c0 .938.52 1.75 1.289 2.17l-.92 2.029c-.17 0-.359.301-.359.58v9.689c0 .89-.73 1.63-1.63 1.63h-.641c-.92 0-1.63-.729-1.63-1.63V201.76c0-.779.58-1.399 1.271-1.399h.729c.62 0 1.12.479 1.23.729l.479.95c.12.17.33.271.55.271l.91 1.96a2.432 2.432 0 0 0-1.279 2.171v10.038z" fill="#73ba25"/><path d="M108.46 200.23c3.75 0 6.16 2.229 6.16 5.659v11.141c0 3.489-2.359 5.649-6.16 5.649h-.67c-2.149 0-3.77-.739-5.06-1.33-.8-.369-1.48-.67-2.021-.67l.92-2.029c.351.188.75.3 1.171.3h5.43a2.46 2.46 0 0 0 2.46-2.47v-10.04c0-1.381-1.08-2.46-2.46-2.46h-5.43c-.431 0-.83.108-1.181.289l-.91-1.96c.54 0 1.221-.319 2-.699 1.311-.62 2.92-1.391 5.07-1.391v.011h.681zM90.9 205.64v11.521c0 2.96-2.4 5.37-5.34 5.37h-7.44c-2.93 0-5.319-2.41-5.319-5.37V205.64c0-2.92 2.47-5.279 5.51-5.279h7.08c3.039-.001 5.509 2.369 5.509 5.279zm-3.92 11.07v-10.5c0-1.22-1.03-2.25-2.24-2.25h-5.8a2.252 2.252 0 0 0-2.24 2.25v10.5c0 1.261.96 2.24 2.19 2.24h5.85c1.24 0 2.24-1.01 2.24-2.24z" fill="#73ba25"/></svg>